<mxfile host="Electron" modified="2024-04-02T19:41:25.253Z" agent="Mozilla/5.0 (X11; Linux x86_64) AppleWebKit/537.36 (KHTML, like Gecko) draw.io/21.6.5 Chrome/114.0.5735.243 Electron/25.3.1 Safari/537.36" etag="wtg0AqDFR1v-pYEUa8G1" version="21.6.5" type="device">
  <diagram name="Home" id="9f46799a-70d6-7492-0946-bef42562c5a5">
    <mxGraphModel dx="753" dy="486" grid="1" gridSize="10" guides="1" tooltips="1" connect="1" arrows="1" fold="1" page="1" pageScale="1" pageWidth="800" pageHeight="1200" background="none" math="1" shadow="0">
      <root>
        <mxCell id="0" />
        <mxCell id="1" parent="0" />
        <mxCell id="ZuBzz7yQHL8-YbtbXIBX-20" value="&amp;nbsp;" style="edgeStyle=none;rounded=1;orthogonalLoop=1;jettySize=auto;html=1;fontSize=12;startSize=8;endSize=8;endArrow=ERmany;endFill=0;startArrow=ERone;startFill=0;labelBackgroundColor=none;fontColor=default;exitX=1;exitY=0.5;exitDx=0;exitDy=0;entryX=0;entryY=0.5;entryDx=0;entryDy=0;strokeWidth=2;" parent="1" source="uZRpH8Z-nk-ToQXNzY9e-180" target="uZRpH8Z-nk-ToQXNzY9e-223" edge="1">
          <mxGeometry x="0.0072" y="9" relative="1" as="geometry">
            <mxPoint x="610" y="620" as="sourcePoint" />
            <mxPoint x="700" y="320" as="targetPoint" />
            <Array as="points">
              <mxPoint x="1200" y="665" />
              <mxPoint x="1200" y="715" />
            </Array>
            <mxPoint as="offset" />
          </mxGeometry>
        </mxCell>
        <mxCell id="ZuBzz7yQHL8-YbtbXIBX-19" style="edgeStyle=none;rounded=1;orthogonalLoop=1;jettySize=auto;html=1;fontSize=12;startSize=8;endSize=8;startArrow=ERmany;startFill=0;endArrow=ERmany;endFill=0;entryX=0;entryY=0.5;entryDx=0;entryDy=0;labelBackgroundColor=none;fontColor=default;exitX=1;exitY=0.5;exitDx=0;exitDy=0;strokeWidth=2;" parent="1" source="uZRpH8Z-nk-ToQXNzY9e-144" target="uZRpH8Z-nk-ToQXNzY9e-220" edge="1">
          <mxGeometry relative="1" as="geometry">
            <mxPoint x="290" y="600" as="sourcePoint" />
            <mxPoint x="570" y="620" as="targetPoint" />
            <Array as="points">
              <mxPoint x="470" y="670" />
              <mxPoint x="470" y="695" />
            </Array>
          </mxGeometry>
        </mxCell>
        <mxCell id="uZRpH8Z-nk-ToQXNzY9e-143" value="User" style="shape=table;startSize=30;container=1;collapsible=0;childLayout=tableLayout;fixedRows=1;rowLines=1;fontStyle=1;strokeColor=#000000;fontSize=18;fillColor=#a20025;fontColor=#ffffff;" parent="1" vertex="1">
          <mxGeometry x="160" y="620" width="210" height="240" as="geometry" />
        </mxCell>
        <mxCell id="uZRpH8Z-nk-ToQXNzY9e-144" value="" style="shape=tableRow;horizontal=0;startSize=0;swimlaneHead=0;swimlaneBody=0;top=0;left=0;bottom=0;right=0;collapsible=0;dropTarget=0;fillColor=none;points=[[0,0.5],[1,0.5]];portConstraint=eastwest;strokeColor=inherit;fontSize=16;" parent="uZRpH8Z-nk-ToQXNzY9e-143" vertex="1">
          <mxGeometry y="30" width="210" height="30" as="geometry" />
        </mxCell>
        <mxCell id="uZRpH8Z-nk-ToQXNzY9e-145" value="&lt;font style=&quot;font-size: 15px;&quot;&gt;Primary Key&lt;/font&gt;" style="shape=partialRectangle;html=1;whiteSpace=wrap;connectable=0;fillColor=#f5f5f5;top=1;left=1;bottom=1;right=1;overflow=hidden;pointerEvents=1;strokeColor=#000000;fontSize=15;fontColor=#000000;perimeterSpacing=1;" parent="uZRpH8Z-nk-ToQXNzY9e-144" vertex="1">
          <mxGeometry width="105" height="30" as="geometry">
            <mxRectangle width="105" height="30" as="alternateBounds" />
          </mxGeometry>
        </mxCell>
        <mxCell id="uZRpH8Z-nk-ToQXNzY9e-146" value="id" style="shape=partialRectangle;html=1;whiteSpace=wrap;connectable=0;fillColor=#f5f5f5;top=1;left=1;bottom=1;right=1;align=left;spacingLeft=6;overflow=hidden;strokeColor=#000000;fontSize=15;fontColor=#000000;perimeterSpacing=1;" parent="uZRpH8Z-nk-ToQXNzY9e-144" vertex="1">
          <mxGeometry x="105" width="105" height="30" as="geometry">
            <mxRectangle width="105" height="30" as="alternateBounds" />
          </mxGeometry>
        </mxCell>
        <mxCell id="uZRpH8Z-nk-ToQXNzY9e-147" value="" style="shape=tableRow;horizontal=0;startSize=0;swimlaneHead=0;swimlaneBody=0;top=0;left=0;bottom=0;right=0;collapsible=0;dropTarget=0;fillColor=none;points=[[0,0.5],[1,0.5]];portConstraint=eastwest;strokeColor=inherit;fontSize=16;" parent="uZRpH8Z-nk-ToQXNzY9e-143" vertex="1">
          <mxGeometry y="60" width="210" height="30" as="geometry" />
        </mxCell>
        <mxCell id="uZRpH8Z-nk-ToQXNzY9e-148" value="String" style="shape=partialRectangle;html=1;whiteSpace=wrap;connectable=0;fillColor=#f5f5f5;top=1;left=1;bottom=1;right=1;overflow=hidden;strokeColor=#000000;fontSize=15;fontColor=#000000;perimeterSpacing=1;" parent="uZRpH8Z-nk-ToQXNzY9e-147" vertex="1">
          <mxGeometry width="105" height="30" as="geometry">
            <mxRectangle width="105" height="30" as="alternateBounds" />
          </mxGeometry>
        </mxCell>
        <mxCell id="uZRpH8Z-nk-ToQXNzY9e-149" value="username" style="shape=partialRectangle;html=1;whiteSpace=wrap;connectable=0;fillColor=#f5f5f5;top=1;left=1;bottom=1;right=1;align=left;spacingLeft=6;overflow=hidden;strokeColor=#000000;fontSize=15;fontColor=#000000;perimeterSpacing=1;" parent="uZRpH8Z-nk-ToQXNzY9e-147" vertex="1">
          <mxGeometry x="105" width="105" height="30" as="geometry">
            <mxRectangle width="105" height="30" as="alternateBounds" />
          </mxGeometry>
        </mxCell>
        <mxCell id="uZRpH8Z-nk-ToQXNzY9e-150" value="" style="shape=tableRow;horizontal=0;startSize=0;swimlaneHead=0;swimlaneBody=0;top=0;left=0;bottom=0;right=0;collapsible=0;dropTarget=0;fillColor=none;points=[[0,0.5],[1,0.5]];portConstraint=eastwest;strokeColor=inherit;fontSize=16;" parent="uZRpH8Z-nk-ToQXNzY9e-143" vertex="1">
          <mxGeometry y="90" width="210" height="30" as="geometry" />
        </mxCell>
        <mxCell id="uZRpH8Z-nk-ToQXNzY9e-151" value="String" style="shape=partialRectangle;html=1;whiteSpace=wrap;connectable=0;fillColor=#f5f5f5;top=1;left=1;bottom=1;right=1;overflow=hidden;strokeColor=#000000;fontSize=15;fontColor=#000000;perimeterSpacing=1;" parent="uZRpH8Z-nk-ToQXNzY9e-150" vertex="1">
          <mxGeometry width="105" height="30" as="geometry">
            <mxRectangle width="105" height="30" as="alternateBounds" />
          </mxGeometry>
        </mxCell>
        <mxCell id="uZRpH8Z-nk-ToQXNzY9e-152" value="first_name" style="shape=partialRectangle;html=1;whiteSpace=wrap;connectable=0;fillColor=#f5f5f5;top=1;left=1;bottom=1;right=1;align=left;spacingLeft=6;overflow=hidden;strokeColor=#000000;fontSize=15;fontColor=#000000;perimeterSpacing=1;" parent="uZRpH8Z-nk-ToQXNzY9e-150" vertex="1">
          <mxGeometry x="105" width="105" height="30" as="geometry">
            <mxRectangle width="105" height="30" as="alternateBounds" />
          </mxGeometry>
        </mxCell>
        <mxCell id="uZRpH8Z-nk-ToQXNzY9e-166" value="" style="shape=tableRow;horizontal=0;startSize=0;swimlaneHead=0;swimlaneBody=0;top=0;left=0;bottom=0;right=0;collapsible=0;dropTarget=0;fillColor=none;points=[[0,0.5],[1,0.5]];portConstraint=eastwest;strokeColor=inherit;fontSize=16;" parent="uZRpH8Z-nk-ToQXNzY9e-143" vertex="1">
          <mxGeometry y="120" width="210" height="30" as="geometry" />
        </mxCell>
        <mxCell id="uZRpH8Z-nk-ToQXNzY9e-167" value="String" style="shape=partialRectangle;html=1;whiteSpace=wrap;connectable=0;fillColor=#f5f5f5;top=1;left=1;bottom=1;right=1;overflow=hidden;strokeColor=#000000;fontSize=15;fontColor=#000000;perimeterSpacing=1;" parent="uZRpH8Z-nk-ToQXNzY9e-166" vertex="1">
          <mxGeometry width="105" height="30" as="geometry">
            <mxRectangle width="105" height="30" as="alternateBounds" />
          </mxGeometry>
        </mxCell>
        <mxCell id="uZRpH8Z-nk-ToQXNzY9e-168" value="last_name" style="shape=partialRectangle;html=1;whiteSpace=wrap;connectable=0;fillColor=#f5f5f5;top=1;left=1;bottom=1;right=1;align=left;spacingLeft=6;overflow=hidden;strokeColor=#000000;fontSize=15;fontColor=#000000;perimeterSpacing=1;" parent="uZRpH8Z-nk-ToQXNzY9e-166" vertex="1">
          <mxGeometry x="105" width="105" height="30" as="geometry">
            <mxRectangle width="105" height="30" as="alternateBounds" />
          </mxGeometry>
        </mxCell>
        <mxCell id="uZRpH8Z-nk-ToQXNzY9e-169" value="" style="shape=tableRow;horizontal=0;startSize=0;swimlaneHead=0;swimlaneBody=0;top=0;left=0;bottom=0;right=0;collapsible=0;dropTarget=0;fillColor=none;points=[[0,0.5],[1,0.5]];portConstraint=eastwest;strokeColor=inherit;fontSize=16;" parent="uZRpH8Z-nk-ToQXNzY9e-143" vertex="1">
          <mxGeometry y="150" width="210" height="30" as="geometry" />
        </mxCell>
        <mxCell id="uZRpH8Z-nk-ToQXNzY9e-170" value="EmailField" style="shape=partialRectangle;html=1;whiteSpace=wrap;connectable=0;fillColor=#f5f5f5;top=1;left=1;bottom=1;right=1;overflow=hidden;strokeColor=#000000;fontSize=15;fontColor=#000000;perimeterSpacing=1;" parent="uZRpH8Z-nk-ToQXNzY9e-169" vertex="1">
          <mxGeometry width="105" height="30" as="geometry">
            <mxRectangle width="105" height="30" as="alternateBounds" />
          </mxGeometry>
        </mxCell>
        <mxCell id="uZRpH8Z-nk-ToQXNzY9e-171" value="email" style="shape=partialRectangle;html=1;whiteSpace=wrap;connectable=0;fillColor=#f5f5f5;top=1;left=1;bottom=1;right=1;align=left;spacingLeft=6;overflow=hidden;strokeColor=#000000;fontSize=15;fontColor=#000000;perimeterSpacing=1;" parent="uZRpH8Z-nk-ToQXNzY9e-169" vertex="1">
          <mxGeometry x="105" width="105" height="30" as="geometry">
            <mxRectangle width="105" height="30" as="alternateBounds" />
          </mxGeometry>
        </mxCell>
        <mxCell id="h_Kg9dkI9j4lhHmOOgOo-18" value="" style="shape=tableRow;horizontal=0;startSize=0;swimlaneHead=0;swimlaneBody=0;top=0;left=0;bottom=0;right=0;collapsible=0;dropTarget=0;fillColor=none;points=[[0,0.5],[1,0.5]];portConstraint=eastwest;strokeColor=inherit;fontSize=16;" parent="uZRpH8Z-nk-ToQXNzY9e-143" vertex="1">
          <mxGeometry y="180" width="210" height="30" as="geometry" />
        </mxCell>
        <mxCell id="h_Kg9dkI9j4lhHmOOgOo-19" value="ImageField" style="shape=partialRectangle;html=1;whiteSpace=wrap;connectable=0;fillColor=#f5f5f5;top=1;left=1;bottom=1;right=1;overflow=hidden;strokeColor=#000000;fontSize=15;fontColor=#000000;perimeterSpacing=1;" parent="h_Kg9dkI9j4lhHmOOgOo-18" vertex="1">
          <mxGeometry width="105" height="30" as="geometry">
            <mxRectangle width="105" height="30" as="alternateBounds" />
          </mxGeometry>
        </mxCell>
        <mxCell id="h_Kg9dkI9j4lhHmOOgOo-20" value="avatar" style="shape=partialRectangle;html=1;whiteSpace=wrap;connectable=0;fillColor=#f5f5f5;top=1;left=1;bottom=1;right=1;align=left;spacingLeft=6;overflow=hidden;strokeColor=#000000;fontSize=15;fontColor=#000000;perimeterSpacing=1;" parent="h_Kg9dkI9j4lhHmOOgOo-18" vertex="1">
          <mxGeometry x="105" width="105" height="30" as="geometry">
            <mxRectangle width="105" height="30" as="alternateBounds" />
          </mxGeometry>
        </mxCell>
        <mxCell id="h_Kg9dkI9j4lhHmOOgOo-12" value="" style="shape=tableRow;horizontal=0;startSize=0;swimlaneHead=0;swimlaneBody=0;top=0;left=0;bottom=0;right=0;collapsible=0;dropTarget=0;fillColor=none;points=[[0,0.5],[1,0.5]];portConstraint=eastwest;strokeColor=inherit;fontSize=16;" parent="uZRpH8Z-nk-ToQXNzY9e-143" vertex="1">
          <mxGeometry y="210" width="210" height="30" as="geometry" />
        </mxCell>
        <mxCell id="h_Kg9dkI9j4lhHmOOgOo-13" value="hash" style="shape=partialRectangle;html=1;whiteSpace=wrap;connectable=0;fillColor=#f5f5f5;top=1;left=1;bottom=1;right=1;overflow=hidden;strokeColor=#000000;fontSize=15;fontColor=#000000;perimeterSpacing=1;" parent="h_Kg9dkI9j4lhHmOOgOo-12" vertex="1">
          <mxGeometry width="105" height="30" as="geometry">
            <mxRectangle width="105" height="30" as="alternateBounds" />
          </mxGeometry>
        </mxCell>
        <mxCell id="h_Kg9dkI9j4lhHmOOgOo-14" value="password" style="shape=partialRectangle;html=1;whiteSpace=wrap;connectable=0;fillColor=#f5f5f5;top=1;left=1;bottom=1;right=1;align=left;spacingLeft=6;overflow=hidden;strokeColor=#000000;fontSize=15;fontColor=#000000;perimeterSpacing=1;" parent="h_Kg9dkI9j4lhHmOOgOo-12" vertex="1">
          <mxGeometry x="105" width="105" height="30" as="geometry">
            <mxRectangle width="105" height="30" as="alternateBounds" />
          </mxGeometry>
        </mxCell>
        <mxCell id="uZRpH8Z-nk-ToQXNzY9e-179" value="Company" style="shape=table;startSize=30;container=1;collapsible=0;childLayout=tableLayout;fixedRows=1;rowLines=1;fontStyle=1;strokeColor=#000000;fontSize=18;fillColor=#0050ef;fontColor=#ffffff;" parent="1" vertex="1">
          <mxGeometry x="530" y="620" width="210" height="240" as="geometry" />
        </mxCell>
        <mxCell id="uZRpH8Z-nk-ToQXNzY9e-180" value="" style="shape=tableRow;horizontal=0;startSize=0;swimlaneHead=0;swimlaneBody=0;top=0;left=0;bottom=0;right=0;collapsible=0;dropTarget=0;fillColor=none;points=[[0,0.5],[1,0.5]];portConstraint=eastwest;strokeColor=inherit;fontSize=16;" parent="uZRpH8Z-nk-ToQXNzY9e-179" vertex="1">
          <mxGeometry y="30" width="210" height="30" as="geometry" />
        </mxCell>
        <mxCell id="uZRpH8Z-nk-ToQXNzY9e-181" value="&lt;font style=&quot;font-size: 15px;&quot;&gt;Primary Key&lt;/font&gt;" style="shape=partialRectangle;html=1;whiteSpace=wrap;connectable=0;fillColor=#f5f5f5;top=1;left=1;bottom=1;right=1;overflow=hidden;pointerEvents=1;strokeColor=#000000;fontSize=15;fontColor=#000000;perimeterSpacing=1;" parent="uZRpH8Z-nk-ToQXNzY9e-180" vertex="1">
          <mxGeometry width="105" height="30" as="geometry">
            <mxRectangle width="105" height="30" as="alternateBounds" />
          </mxGeometry>
        </mxCell>
        <mxCell id="uZRpH8Z-nk-ToQXNzY9e-182" value="id" style="shape=partialRectangle;html=1;whiteSpace=wrap;connectable=0;fillColor=#f5f5f5;top=1;left=1;bottom=1;right=1;align=left;spacingLeft=6;overflow=hidden;strokeColor=#000000;fontSize=15;fontColor=#000000;perimeterSpacing=1;" parent="uZRpH8Z-nk-ToQXNzY9e-180" vertex="1">
          <mxGeometry x="105" width="105" height="30" as="geometry">
            <mxRectangle width="105" height="30" as="alternateBounds" />
          </mxGeometry>
        </mxCell>
        <mxCell id="uZRpH8Z-nk-ToQXNzY9e-220" value="" style="shape=tableRow;horizontal=0;startSize=0;swimlaneHead=0;swimlaneBody=0;top=0;left=0;bottom=0;right=0;collapsible=0;dropTarget=0;fillColor=none;points=[[0,0.5],[1,0.5]];portConstraint=eastwest;strokeColor=inherit;fontSize=16;" parent="uZRpH8Z-nk-ToQXNzY9e-179" vertex="1">
          <mxGeometry y="60" width="210" height="30" as="geometry" />
        </mxCell>
        <mxCell id="uZRpH8Z-nk-ToQXNzY9e-221" value="&lt;font style=&quot;font-size: 15px;&quot;&gt;Many To Many&lt;br&gt;&lt;/font&gt;" style="shape=partialRectangle;html=1;whiteSpace=wrap;connectable=0;fillColor=#f5f5f5;top=1;left=1;bottom=1;right=1;overflow=hidden;pointerEvents=1;strokeColor=#000000;fontSize=15;fontColor=#000000;perimeterSpacing=1;" parent="uZRpH8Z-nk-ToQXNzY9e-220" vertex="1">
          <mxGeometry width="105" height="30" as="geometry">
            <mxRectangle width="105" height="30" as="alternateBounds" />
          </mxGeometry>
        </mxCell>
        <mxCell id="uZRpH8Z-nk-ToQXNzY9e-222" value="user" style="shape=partialRectangle;html=1;whiteSpace=wrap;connectable=0;fillColor=#f5f5f5;top=1;left=1;bottom=1;right=1;align=left;spacingLeft=6;overflow=hidden;strokeColor=#000000;fontSize=15;fontColor=#000000;perimeterSpacing=1;" parent="uZRpH8Z-nk-ToQXNzY9e-220" vertex="1">
          <mxGeometry x="105" width="105" height="30" as="geometry">
            <mxRectangle width="105" height="30" as="alternateBounds" />
          </mxGeometry>
        </mxCell>
        <mxCell id="uZRpH8Z-nk-ToQXNzY9e-183" value="" style="shape=tableRow;horizontal=0;startSize=0;swimlaneHead=0;swimlaneBody=0;top=0;left=0;bottom=0;right=0;collapsible=0;dropTarget=0;fillColor=none;points=[[0,0.5],[1,0.5]];portConstraint=eastwest;strokeColor=inherit;fontSize=16;" parent="uZRpH8Z-nk-ToQXNzY9e-179" vertex="1">
          <mxGeometry y="90" width="210" height="30" as="geometry" />
        </mxCell>
        <mxCell id="uZRpH8Z-nk-ToQXNzY9e-184" value="String" style="shape=partialRectangle;html=1;whiteSpace=wrap;connectable=0;fillColor=#f5f5f5;top=1;left=1;bottom=1;right=1;overflow=hidden;strokeColor=#000000;fontSize=15;fontColor=#000000;perimeterSpacing=1;" parent="uZRpH8Z-nk-ToQXNzY9e-183" vertex="1">
          <mxGeometry width="105" height="30" as="geometry">
            <mxRectangle width="105" height="30" as="alternateBounds" />
          </mxGeometry>
        </mxCell>
        <mxCell id="uZRpH8Z-nk-ToQXNzY9e-185" value="name" style="shape=partialRectangle;html=1;whiteSpace=wrap;connectable=0;fillColor=#f5f5f5;top=1;left=1;bottom=1;right=1;align=left;spacingLeft=6;overflow=hidden;strokeColor=#000000;fontSize=15;fontColor=#000000;perimeterSpacing=1;" parent="uZRpH8Z-nk-ToQXNzY9e-183" vertex="1">
          <mxGeometry x="105" width="105" height="30" as="geometry">
            <mxRectangle width="105" height="30" as="alternateBounds" />
          </mxGeometry>
        </mxCell>
        <mxCell id="KY9Jax-pfrUybKBa-ff5-23" value="" style="shape=tableRow;horizontal=0;startSize=0;swimlaneHead=0;swimlaneBody=0;top=0;left=0;bottom=0;right=0;collapsible=0;dropTarget=0;fillColor=none;points=[[0,0.5],[1,0.5]];portConstraint=eastwest;strokeColor=inherit;fontSize=16;" parent="uZRpH8Z-nk-ToQXNzY9e-179" vertex="1">
          <mxGeometry y="120" width="210" height="30" as="geometry" />
        </mxCell>
        <mxCell id="KY9Jax-pfrUybKBa-ff5-24" value="image" style="shape=partialRectangle;html=1;whiteSpace=wrap;connectable=0;fillColor=#f5f5f5;top=1;left=1;bottom=1;right=1;overflow=hidden;strokeColor=#000000;fontSize=15;fontColor=#000000;perimeterSpacing=1;" parent="KY9Jax-pfrUybKBa-ff5-23" vertex="1">
          <mxGeometry width="105" height="30" as="geometry">
            <mxRectangle width="105" height="30" as="alternateBounds" />
          </mxGeometry>
        </mxCell>
        <mxCell id="KY9Jax-pfrUybKBa-ff5-25" value="logo" style="shape=partialRectangle;html=1;whiteSpace=wrap;connectable=0;fillColor=#f5f5f5;top=1;left=1;bottom=1;right=1;align=left;spacingLeft=6;overflow=hidden;strokeColor=#000000;fontSize=15;fontColor=#000000;perimeterSpacing=1;" parent="KY9Jax-pfrUybKBa-ff5-23" vertex="1">
          <mxGeometry x="105" width="105" height="30" as="geometry">
            <mxRectangle width="105" height="30" as="alternateBounds" />
          </mxGeometry>
        </mxCell>
        <mxCell id="KY9Jax-pfrUybKBa-ff5-26" value="" style="shape=tableRow;horizontal=0;startSize=0;swimlaneHead=0;swimlaneBody=0;top=0;left=0;bottom=0;right=0;collapsible=0;dropTarget=0;fillColor=none;points=[[0,0.5],[1,0.5]];portConstraint=eastwest;strokeColor=inherit;fontSize=16;" parent="uZRpH8Z-nk-ToQXNzY9e-179" vertex="1">
          <mxGeometry y="150" width="210" height="30" as="geometry" />
        </mxCell>
        <mxCell id="KY9Jax-pfrUybKBa-ff5-27" value="String" style="shape=partialRectangle;html=1;whiteSpace=wrap;connectable=0;fillColor=#f5f5f5;top=1;left=1;bottom=1;right=1;overflow=hidden;strokeColor=#000000;fontSize=15;fontColor=#000000;perimeterSpacing=1;" parent="KY9Jax-pfrUybKBa-ff5-26" vertex="1">
          <mxGeometry width="105" height="30" as="geometry">
            <mxRectangle width="105" height="30" as="alternateBounds" />
          </mxGeometry>
        </mxCell>
        <mxCell id="KY9Jax-pfrUybKBa-ff5-28" value="slogan" style="shape=partialRectangle;html=1;whiteSpace=wrap;connectable=0;fillColor=#f5f5f5;top=1;left=1;bottom=1;right=1;align=left;spacingLeft=6;overflow=hidden;strokeColor=#000000;fontSize=15;fontColor=#000000;perimeterSpacing=1;" parent="KY9Jax-pfrUybKBa-ff5-26" vertex="1">
          <mxGeometry x="105" width="105" height="30" as="geometry">
            <mxRectangle width="105" height="30" as="alternateBounds" />
          </mxGeometry>
        </mxCell>
        <mxCell id="uZRpH8Z-nk-ToQXNzY9e-186" value="" style="shape=tableRow;horizontal=0;startSize=0;swimlaneHead=0;swimlaneBody=0;top=0;left=0;bottom=0;right=0;collapsible=0;dropTarget=0;fillColor=none;points=[[0,0.5],[1,0.5]];portConstraint=eastwest;strokeColor=inherit;fontSize=16;" parent="uZRpH8Z-nk-ToQXNzY9e-179" vertex="1">
          <mxGeometry y="180" width="210" height="30" as="geometry" />
        </mxCell>
        <mxCell id="uZRpH8Z-nk-ToQXNzY9e-187" value="Date" style="shape=partialRectangle;html=1;whiteSpace=wrap;connectable=0;fillColor=#f5f5f5;top=1;left=1;bottom=1;right=1;overflow=hidden;strokeColor=#000000;fontSize=15;fontColor=#000000;perimeterSpacing=1;" parent="uZRpH8Z-nk-ToQXNzY9e-186" vertex="1">
          <mxGeometry width="105" height="30" as="geometry">
            <mxRectangle width="105" height="30" as="alternateBounds" />
          </mxGeometry>
        </mxCell>
        <mxCell id="uZRpH8Z-nk-ToQXNzY9e-188" value="updated" style="shape=partialRectangle;html=1;whiteSpace=wrap;connectable=0;fillColor=#f5f5f5;top=1;left=1;bottom=1;right=1;align=left;spacingLeft=6;overflow=hidden;strokeColor=#000000;fontSize=15;fontColor=#000000;perimeterSpacing=1;" parent="uZRpH8Z-nk-ToQXNzY9e-186" vertex="1">
          <mxGeometry x="105" width="105" height="30" as="geometry">
            <mxRectangle width="105" height="30" as="alternateBounds" />
          </mxGeometry>
        </mxCell>
        <mxCell id="uZRpH8Z-nk-ToQXNzY9e-189" value="" style="shape=tableRow;horizontal=0;startSize=0;swimlaneHead=0;swimlaneBody=0;top=0;left=0;bottom=0;right=0;collapsible=0;dropTarget=0;fillColor=none;points=[[0,0.5],[1,0.5]];portConstraint=eastwest;strokeColor=inherit;fontSize=16;" parent="uZRpH8Z-nk-ToQXNzY9e-179" vertex="1">
          <mxGeometry y="210" width="210" height="30" as="geometry" />
        </mxCell>
        <mxCell id="uZRpH8Z-nk-ToQXNzY9e-190" value="Date" style="shape=partialRectangle;html=1;whiteSpace=wrap;connectable=0;fillColor=#f5f5f5;top=1;left=1;bottom=1;right=1;overflow=hidden;strokeColor=#000000;fontSize=15;fontColor=#000000;perimeterSpacing=1;" parent="uZRpH8Z-nk-ToQXNzY9e-189" vertex="1">
          <mxGeometry width="105" height="30" as="geometry">
            <mxRectangle width="105" height="30" as="alternateBounds" />
          </mxGeometry>
        </mxCell>
        <mxCell id="uZRpH8Z-nk-ToQXNzY9e-191" value="created" style="shape=partialRectangle;html=1;whiteSpace=wrap;connectable=0;fillColor=#f5f5f5;top=1;left=1;bottom=1;right=1;align=left;spacingLeft=6;overflow=hidden;strokeColor=#000000;fontSize=15;fontColor=#000000;perimeterSpacing=1;" parent="uZRpH8Z-nk-ToQXNzY9e-189" vertex="1">
          <mxGeometry x="105" width="105" height="30" as="geometry">
            <mxRectangle width="105" height="30" as="alternateBounds" />
          </mxGeometry>
        </mxCell>
        <mxCell id="uZRpH8Z-nk-ToQXNzY9e-201" value="Customer" style="shape=table;startSize=30;container=1;collapsible=0;childLayout=tableLayout;fixedRows=1;rowLines=1;fontStyle=1;strokeColor=#000000;fontSize=18;fillColor=#6a00ff;fontColor=#ffffff;" parent="1" vertex="1">
          <mxGeometry x="1280" y="640" width="210" height="210" as="geometry" />
        </mxCell>
        <mxCell id="uZRpH8Z-nk-ToQXNzY9e-202" value="" style="shape=tableRow;horizontal=0;startSize=0;swimlaneHead=0;swimlaneBody=0;top=0;left=0;bottom=0;right=0;collapsible=0;dropTarget=0;fillColor=none;points=[[0,0.5],[1,0.5]];portConstraint=eastwest;strokeColor=inherit;fontSize=16;" parent="uZRpH8Z-nk-ToQXNzY9e-201" vertex="1">
          <mxGeometry y="30" width="210" height="30" as="geometry" />
        </mxCell>
        <mxCell id="uZRpH8Z-nk-ToQXNzY9e-203" value="&lt;font style=&quot;font-size: 15px;&quot;&gt;Primary Key&lt;/font&gt;" style="shape=partialRectangle;html=1;whiteSpace=wrap;connectable=0;fillColor=#f5f5f5;top=1;left=1;bottom=1;right=1;overflow=hidden;pointerEvents=1;strokeColor=#000000;fontSize=15;fontColor=#000000;perimeterSpacing=1;" parent="uZRpH8Z-nk-ToQXNzY9e-202" vertex="1">
          <mxGeometry width="105" height="30" as="geometry">
            <mxRectangle width="105" height="30" as="alternateBounds" />
          </mxGeometry>
        </mxCell>
        <mxCell id="uZRpH8Z-nk-ToQXNzY9e-204" value="id" style="shape=partialRectangle;html=1;whiteSpace=wrap;connectable=0;fillColor=#f5f5f5;top=1;left=1;bottom=1;right=1;align=left;spacingLeft=6;overflow=hidden;strokeColor=#000000;fontSize=15;fontColor=#000000;perimeterSpacing=1;" parent="uZRpH8Z-nk-ToQXNzY9e-202" vertex="1">
          <mxGeometry x="105" width="105" height="30" as="geometry">
            <mxRectangle width="105" height="30" as="alternateBounds" />
          </mxGeometry>
        </mxCell>
        <mxCell id="uZRpH8Z-nk-ToQXNzY9e-223" value="" style="shape=tableRow;horizontal=0;startSize=0;swimlaneHead=0;swimlaneBody=0;top=0;left=0;bottom=0;right=0;collapsible=0;dropTarget=0;fillColor=none;points=[[0,0.5],[1,0.5]];portConstraint=eastwest;strokeColor=inherit;fontSize=16;" parent="uZRpH8Z-nk-ToQXNzY9e-201" vertex="1">
          <mxGeometry y="60" width="210" height="30" as="geometry" />
        </mxCell>
        <mxCell id="uZRpH8Z-nk-ToQXNzY9e-224" value="&lt;font style=&quot;font-size: 15px;&quot;&gt;Foreign Key&lt;/font&gt;" style="shape=partialRectangle;html=1;whiteSpace=wrap;connectable=0;fillColor=#f5f5f5;top=1;left=1;bottom=1;right=1;overflow=hidden;pointerEvents=1;strokeColor=#000000;fontSize=15;fontColor=#000000;perimeterSpacing=1;" parent="uZRpH8Z-nk-ToQXNzY9e-223" vertex="1">
          <mxGeometry width="105" height="30" as="geometry">
            <mxRectangle width="105" height="30" as="alternateBounds" />
          </mxGeometry>
        </mxCell>
        <mxCell id="uZRpH8Z-nk-ToQXNzY9e-225" value="company" style="shape=partialRectangle;html=1;whiteSpace=wrap;connectable=0;fillColor=#f5f5f5;top=1;left=1;bottom=1;right=1;align=left;spacingLeft=6;overflow=hidden;strokeColor=#000000;fontSize=15;fontColor=#000000;perimeterSpacing=1;" parent="uZRpH8Z-nk-ToQXNzY9e-223" vertex="1">
          <mxGeometry x="105" width="105" height="30" as="geometry">
            <mxRectangle width="105" height="30" as="alternateBounds" />
          </mxGeometry>
        </mxCell>
        <mxCell id="5tA6jEpRhgvisvDdZv_s-149" value="" style="shape=tableRow;horizontal=0;startSize=0;swimlaneHead=0;swimlaneBody=0;top=0;left=0;bottom=0;right=0;collapsible=0;dropTarget=0;fillColor=none;points=[[0,0.5],[1,0.5]];portConstraint=eastwest;strokeColor=inherit;fontSize=16;" parent="uZRpH8Z-nk-ToQXNzY9e-201" vertex="1">
          <mxGeometry y="90" width="210" height="30" as="geometry" />
        </mxCell>
        <mxCell id="5tA6jEpRhgvisvDdZv_s-150" value="&lt;font style=&quot;font-size: 15px;&quot;&gt;Foreign Key&lt;/font&gt;" style="shape=partialRectangle;html=1;whiteSpace=wrap;connectable=0;fillColor=#f5f5f5;top=1;left=1;bottom=1;right=1;overflow=hidden;pointerEvents=1;strokeColor=#000000;fontSize=15;fontColor=#000000;perimeterSpacing=1;" parent="5tA6jEpRhgvisvDdZv_s-149" vertex="1">
          <mxGeometry width="105" height="30" as="geometry">
            <mxRectangle width="105" height="30" as="alternateBounds" />
          </mxGeometry>
        </mxCell>
        <mxCell id="5tA6jEpRhgvisvDdZv_s-151" value="schema" style="shape=partialRectangle;html=1;whiteSpace=wrap;connectable=0;fillColor=#f5f5f5;top=1;left=1;bottom=1;right=1;align=left;spacingLeft=6;overflow=hidden;strokeColor=#000000;fontSize=15;fontColor=#000000;perimeterSpacing=1;" parent="5tA6jEpRhgvisvDdZv_s-149" vertex="1">
          <mxGeometry x="105" width="105" height="30" as="geometry">
            <mxRectangle width="105" height="30" as="alternateBounds" />
          </mxGeometry>
        </mxCell>
        <mxCell id="KY9Jax-pfrUybKBa-ff5-115" value="" style="shape=tableRow;horizontal=0;startSize=0;swimlaneHead=0;swimlaneBody=0;top=0;left=0;bottom=0;right=0;collapsible=0;dropTarget=0;fillColor=none;points=[[0,0.5],[1,0.5]];portConstraint=eastwest;strokeColor=inherit;fontSize=16;" parent="uZRpH8Z-nk-ToQXNzY9e-201" vertex="1">
          <mxGeometry y="120" width="210" height="30" as="geometry" />
        </mxCell>
        <mxCell id="KY9Jax-pfrUybKBa-ff5-116" value="JSONField" style="shape=partialRectangle;html=1;whiteSpace=wrap;connectable=0;fillColor=#f5f5f5;top=1;left=1;bottom=1;right=1;overflow=hidden;strokeColor=#000000;fontSize=15;fontColor=#000000;perimeterSpacing=1;" parent="KY9Jax-pfrUybKBa-ff5-115" vertex="1">
          <mxGeometry width="105" height="30" as="geometry">
            <mxRectangle width="105" height="30" as="alternateBounds" />
          </mxGeometry>
        </mxCell>
        <mxCell id="KY9Jax-pfrUybKBa-ff5-117" value="data" style="shape=partialRectangle;html=1;whiteSpace=wrap;connectable=0;fillColor=#f5f5f5;top=1;left=1;bottom=1;right=1;align=left;spacingLeft=6;overflow=hidden;strokeColor=#000000;fontSize=15;fontColor=#000000;perimeterSpacing=1;" parent="KY9Jax-pfrUybKBa-ff5-115" vertex="1">
          <mxGeometry x="105" width="105" height="30" as="geometry">
            <mxRectangle width="105" height="30" as="alternateBounds" />
          </mxGeometry>
        </mxCell>
        <mxCell id="uZRpH8Z-nk-ToQXNzY9e-208" value="" style="shape=tableRow;horizontal=0;startSize=0;swimlaneHead=0;swimlaneBody=0;top=0;left=0;bottom=0;right=0;collapsible=0;dropTarget=0;fillColor=none;points=[[0,0.5],[1,0.5]];portConstraint=eastwest;strokeColor=inherit;fontSize=16;" parent="uZRpH8Z-nk-ToQXNzY9e-201" vertex="1">
          <mxGeometry y="150" width="210" height="30" as="geometry" />
        </mxCell>
        <mxCell id="uZRpH8Z-nk-ToQXNzY9e-209" value="Date" style="shape=partialRectangle;html=1;whiteSpace=wrap;connectable=0;fillColor=#f5f5f5;top=1;left=1;bottom=1;right=1;overflow=hidden;strokeColor=#000000;fontSize=15;fontColor=#000000;perimeterSpacing=1;" parent="uZRpH8Z-nk-ToQXNzY9e-208" vertex="1">
          <mxGeometry width="105" height="30" as="geometry">
            <mxRectangle width="105" height="30" as="alternateBounds" />
          </mxGeometry>
        </mxCell>
        <mxCell id="uZRpH8Z-nk-ToQXNzY9e-210" value="updated" style="shape=partialRectangle;html=1;whiteSpace=wrap;connectable=0;fillColor=#f5f5f5;top=1;left=1;bottom=1;right=1;align=left;spacingLeft=6;overflow=hidden;strokeColor=#000000;fontSize=15;fontColor=#000000;perimeterSpacing=1;" parent="uZRpH8Z-nk-ToQXNzY9e-208" vertex="1">
          <mxGeometry x="105" width="105" height="30" as="geometry">
            <mxRectangle width="105" height="30" as="alternateBounds" />
          </mxGeometry>
        </mxCell>
        <mxCell id="uZRpH8Z-nk-ToQXNzY9e-211" value="" style="shape=tableRow;horizontal=0;startSize=0;swimlaneHead=0;swimlaneBody=0;top=0;left=0;bottom=0;right=0;collapsible=0;dropTarget=0;fillColor=none;points=[[0,0.5],[1,0.5]];portConstraint=eastwest;strokeColor=inherit;fontSize=16;" parent="uZRpH8Z-nk-ToQXNzY9e-201" vertex="1">
          <mxGeometry y="180" width="210" height="30" as="geometry" />
        </mxCell>
        <mxCell id="uZRpH8Z-nk-ToQXNzY9e-212" value="Date" style="shape=partialRectangle;html=1;whiteSpace=wrap;connectable=0;fillColor=#f5f5f5;top=1;left=1;bottom=1;right=1;overflow=hidden;strokeColor=#000000;fontSize=15;fontColor=#000000;perimeterSpacing=1;" parent="uZRpH8Z-nk-ToQXNzY9e-211" vertex="1">
          <mxGeometry width="105" height="30" as="geometry">
            <mxRectangle width="105" height="30" as="alternateBounds" />
          </mxGeometry>
        </mxCell>
        <mxCell id="uZRpH8Z-nk-ToQXNzY9e-213" value="created" style="shape=partialRectangle;html=1;whiteSpace=wrap;connectable=0;fillColor=#f5f5f5;top=1;left=1;bottom=1;right=1;align=left;spacingLeft=6;overflow=hidden;strokeColor=#000000;fontSize=15;fontColor=#000000;perimeterSpacing=1;" parent="uZRpH8Z-nk-ToQXNzY9e-211" vertex="1">
          <mxGeometry x="105" width="105" height="30" as="geometry">
            <mxRectangle width="105" height="30" as="alternateBounds" />
          </mxGeometry>
        </mxCell>
        <mxCell id="UeCWlgEyR7h1v4Lc0QeG-1" value="Schema" style="shape=table;startSize=30;container=1;collapsible=0;childLayout=tableLayout;fixedRows=1;rowLines=1;fontStyle=1;strokeColor=#2D7600;fontSize=18;fillColor=#60a917;fontColor=#ffffff;" parent="1" vertex="1">
          <mxGeometry x="930" y="370" width="210" height="210" as="geometry" />
        </mxCell>
        <mxCell id="UeCWlgEyR7h1v4Lc0QeG-2" value="" style="shape=tableRow;horizontal=0;startSize=0;swimlaneHead=0;swimlaneBody=0;top=0;left=0;bottom=0;right=0;collapsible=0;dropTarget=0;fillColor=none;points=[[0,0.5],[1,0.5]];portConstraint=eastwest;strokeColor=inherit;fontSize=16;" parent="UeCWlgEyR7h1v4Lc0QeG-1" vertex="1">
          <mxGeometry y="30" width="210" height="30" as="geometry" />
        </mxCell>
        <mxCell id="UeCWlgEyR7h1v4Lc0QeG-3" value="&lt;font style=&quot;font-size: 15px;&quot;&gt;Primary Key&lt;/font&gt;" style="shape=partialRectangle;html=1;whiteSpace=wrap;connectable=0;fillColor=#f5f5f5;top=1;left=1;bottom=1;right=1;overflow=hidden;pointerEvents=1;strokeColor=#000000;fontSize=15;fontColor=#000000;perimeterSpacing=1;" parent="UeCWlgEyR7h1v4Lc0QeG-2" vertex="1">
          <mxGeometry width="105" height="30" as="geometry">
            <mxRectangle width="105" height="30" as="alternateBounds" />
          </mxGeometry>
        </mxCell>
        <mxCell id="UeCWlgEyR7h1v4Lc0QeG-4" value="id" style="shape=partialRectangle;html=1;whiteSpace=wrap;connectable=0;fillColor=#f5f5f5;top=1;left=1;bottom=1;right=1;align=left;spacingLeft=6;overflow=hidden;strokeColor=#000000;fontSize=15;fontColor=#000000;perimeterSpacing=1;" parent="UeCWlgEyR7h1v4Lc0QeG-2" vertex="1">
          <mxGeometry x="105" width="105" height="30" as="geometry">
            <mxRectangle width="105" height="30" as="alternateBounds" />
          </mxGeometry>
        </mxCell>
        <mxCell id="UeCWlgEyR7h1v4Lc0QeG-5" value="" style="shape=tableRow;horizontal=0;startSize=0;swimlaneHead=0;swimlaneBody=0;top=0;left=0;bottom=0;right=0;collapsible=0;dropTarget=0;fillColor=none;points=[[0,0.5],[1,0.5]];portConstraint=eastwest;strokeColor=inherit;fontSize=16;" parent="UeCWlgEyR7h1v4Lc0QeG-1" vertex="1">
          <mxGeometry y="60" width="210" height="30" as="geometry" />
        </mxCell>
        <mxCell id="UeCWlgEyR7h1v4Lc0QeG-6" value="&lt;font style=&quot;font-size: 15px;&quot;&gt;Foreign Key&lt;/font&gt;" style="shape=partialRectangle;html=1;whiteSpace=wrap;connectable=0;fillColor=#f5f5f5;top=1;left=1;bottom=1;right=1;overflow=hidden;pointerEvents=1;strokeColor=#000000;fontSize=15;fontColor=#000000;perimeterSpacing=1;" parent="UeCWlgEyR7h1v4Lc0QeG-5" vertex="1">
          <mxGeometry width="105" height="30" as="geometry">
            <mxRectangle width="105" height="30" as="alternateBounds" />
          </mxGeometry>
        </mxCell>
        <mxCell id="UeCWlgEyR7h1v4Lc0QeG-7" value="company" style="shape=partialRectangle;html=1;whiteSpace=wrap;connectable=0;fillColor=#f5f5f5;top=1;left=1;bottom=1;right=1;align=left;spacingLeft=6;overflow=hidden;strokeColor=#000000;fontSize=15;fontColor=#000000;perimeterSpacing=1;" parent="UeCWlgEyR7h1v4Lc0QeG-5" vertex="1">
          <mxGeometry x="105" width="105" height="30" as="geometry">
            <mxRectangle width="105" height="30" as="alternateBounds" />
          </mxGeometry>
        </mxCell>
        <mxCell id="UeCWlgEyR7h1v4Lc0QeG-14" value="" style="shape=tableRow;horizontal=0;startSize=0;swimlaneHead=0;swimlaneBody=0;top=0;left=0;bottom=0;right=0;collapsible=0;dropTarget=0;fillColor=none;points=[[0,0.5],[1,0.5]];portConstraint=eastwest;strokeColor=inherit;fontSize=16;" parent="UeCWlgEyR7h1v4Lc0QeG-1" vertex="1">
          <mxGeometry y="90" width="210" height="30" as="geometry" />
        </mxCell>
        <mxCell id="UeCWlgEyR7h1v4Lc0QeG-15" value="JSONField" style="shape=partialRectangle;html=1;whiteSpace=wrap;connectable=0;fillColor=#f5f5f5;top=1;left=1;bottom=1;right=1;overflow=hidden;strokeColor=#000000;fontSize=15;fontColor=#000000;perimeterSpacing=1;" parent="UeCWlgEyR7h1v4Lc0QeG-14" vertex="1">
          <mxGeometry width="105" height="30" as="geometry">
            <mxRectangle width="105" height="30" as="alternateBounds" />
          </mxGeometry>
        </mxCell>
        <mxCell id="UeCWlgEyR7h1v4Lc0QeG-16" value="schema" style="shape=partialRectangle;html=1;whiteSpace=wrap;connectable=0;fillColor=#f5f5f5;top=1;left=1;bottom=1;right=1;align=left;spacingLeft=6;overflow=hidden;strokeColor=#000000;fontSize=15;fontColor=#000000;perimeterSpacing=1;" parent="UeCWlgEyR7h1v4Lc0QeG-14" vertex="1">
          <mxGeometry x="105" width="105" height="30" as="geometry">
            <mxRectangle width="105" height="30" as="alternateBounds" />
          </mxGeometry>
        </mxCell>
        <mxCell id="5tA6jEpRhgvisvDdZv_s-158" value="" style="shape=tableRow;horizontal=0;startSize=0;swimlaneHead=0;swimlaneBody=0;top=0;left=0;bottom=0;right=0;collapsible=0;dropTarget=0;fillColor=none;points=[[0,0.5],[1,0.5]];portConstraint=eastwest;strokeColor=inherit;fontSize=16;" parent="UeCWlgEyR7h1v4Lc0QeG-1" vertex="1">
          <mxGeometry y="120" width="210" height="30" as="geometry" />
        </mxCell>
        <mxCell id="5tA6jEpRhgvisvDdZv_s-159" value="Choices" style="shape=partialRectangle;html=1;whiteSpace=wrap;connectable=0;fillColor=#f5f5f5;top=1;left=1;bottom=1;right=1;overflow=hidden;strokeColor=#000000;fontSize=15;fontColor=#000000;perimeterSpacing=1;" parent="5tA6jEpRhgvisvDdZv_s-158" vertex="1">
          <mxGeometry width="105" height="30" as="geometry">
            <mxRectangle width="105" height="30" as="alternateBounds" />
          </mxGeometry>
        </mxCell>
        <mxCell id="5tA6jEpRhgvisvDdZv_s-160" value="type" style="shape=partialRectangle;html=1;whiteSpace=wrap;connectable=0;fillColor=#f5f5f5;top=1;left=1;bottom=1;right=1;align=left;spacingLeft=6;overflow=hidden;strokeColor=#000000;fontSize=15;fontColor=#000000;perimeterSpacing=1;" parent="5tA6jEpRhgvisvDdZv_s-158" vertex="1">
          <mxGeometry x="105" width="105" height="30" as="geometry">
            <mxRectangle width="105" height="30" as="alternateBounds" />
          </mxGeometry>
        </mxCell>
        <mxCell id="UeCWlgEyR7h1v4Lc0QeG-32" value="" style="shape=tableRow;horizontal=0;startSize=0;swimlaneHead=0;swimlaneBody=0;top=0;left=0;bottom=0;right=0;collapsible=0;dropTarget=0;fillColor=none;points=[[0,0.5],[1,0.5]];portConstraint=eastwest;strokeColor=inherit;fontSize=16;" parent="UeCWlgEyR7h1v4Lc0QeG-1" vertex="1">
          <mxGeometry y="150" width="210" height="30" as="geometry" />
        </mxCell>
        <mxCell id="UeCWlgEyR7h1v4Lc0QeG-33" value="Date" style="shape=partialRectangle;html=1;whiteSpace=wrap;connectable=0;fillColor=#f5f5f5;top=1;left=1;bottom=1;right=1;overflow=hidden;strokeColor=#000000;fontSize=15;fontColor=#000000;perimeterSpacing=1;" parent="UeCWlgEyR7h1v4Lc0QeG-32" vertex="1">
          <mxGeometry width="105" height="30" as="geometry">
            <mxRectangle width="105" height="30" as="alternateBounds" />
          </mxGeometry>
        </mxCell>
        <mxCell id="UeCWlgEyR7h1v4Lc0QeG-34" value="updated" style="shape=partialRectangle;html=1;whiteSpace=wrap;connectable=0;fillColor=#f5f5f5;top=1;left=1;bottom=1;right=1;align=left;spacingLeft=6;overflow=hidden;strokeColor=#000000;fontSize=15;fontColor=#000000;perimeterSpacing=1;" parent="UeCWlgEyR7h1v4Lc0QeG-32" vertex="1">
          <mxGeometry x="105" width="105" height="30" as="geometry">
            <mxRectangle width="105" height="30" as="alternateBounds" />
          </mxGeometry>
        </mxCell>
        <mxCell id="UeCWlgEyR7h1v4Lc0QeG-35" value="" style="shape=tableRow;horizontal=0;startSize=0;swimlaneHead=0;swimlaneBody=0;top=0;left=0;bottom=0;right=0;collapsible=0;dropTarget=0;fillColor=none;points=[[0,0.5],[1,0.5]];portConstraint=eastwest;strokeColor=inherit;fontSize=16;" parent="UeCWlgEyR7h1v4Lc0QeG-1" vertex="1">
          <mxGeometry y="180" width="210" height="30" as="geometry" />
        </mxCell>
        <mxCell id="UeCWlgEyR7h1v4Lc0QeG-36" value="Date" style="shape=partialRectangle;html=1;whiteSpace=wrap;connectable=0;fillColor=#f5f5f5;top=1;left=1;bottom=1;right=1;overflow=hidden;strokeColor=#000000;fontSize=15;fontColor=#000000;perimeterSpacing=1;" parent="UeCWlgEyR7h1v4Lc0QeG-35" vertex="1">
          <mxGeometry width="105" height="30" as="geometry">
            <mxRectangle width="105" height="30" as="alternateBounds" />
          </mxGeometry>
        </mxCell>
        <mxCell id="UeCWlgEyR7h1v4Lc0QeG-37" value="created" style="shape=partialRectangle;html=1;whiteSpace=wrap;connectable=0;fillColor=#f5f5f5;top=1;left=1;bottom=1;right=1;align=left;spacingLeft=6;overflow=hidden;strokeColor=#000000;fontSize=15;fontColor=#000000;perimeterSpacing=1;" parent="UeCWlgEyR7h1v4Lc0QeG-35" vertex="1">
          <mxGeometry x="105" width="105" height="30" as="geometry">
            <mxRectangle width="105" height="30" as="alternateBounds" />
          </mxGeometry>
        </mxCell>
        <mxCell id="UeCWlgEyR7h1v4Lc0QeG-40" style="edgeStyle=none;rounded=1;orthogonalLoop=1;jettySize=auto;html=1;fontSize=12;startSize=8;endSize=8;entryX=1.014;entryY=0.04;entryDx=0;entryDy=0;entryPerimeter=0;startArrow=ERmany;startFill=0;endArrow=ERone;endFill=0;strokeWidth=2;" parent="1" source="UeCWlgEyR7h1v4Lc0QeG-5" target="uZRpH8Z-nk-ToQXNzY9e-179" edge="1">
          <mxGeometry relative="1" as="geometry">
            <Array as="points">
              <mxPoint x="860" y="445" />
              <mxPoint x="860" y="630" />
            </Array>
          </mxGeometry>
        </mxCell>
        <mxCell id="5tA6jEpRhgvisvDdZv_s-22" value="Product" style="shape=table;startSize=30;container=1;collapsible=0;childLayout=tableLayout;fixedRows=1;rowLines=1;fontStyle=1;strokeColor=#006EAF;fontSize=18;fillColor=#1ba1e2;fontColor=#ffffff;" parent="1" vertex="1">
          <mxGeometry x="1280" y="900" width="210" height="210" as="geometry" />
        </mxCell>
        <mxCell id="5tA6jEpRhgvisvDdZv_s-23" value="" style="shape=tableRow;horizontal=0;startSize=0;swimlaneHead=0;swimlaneBody=0;top=0;left=0;bottom=0;right=0;collapsible=0;dropTarget=0;fillColor=none;points=[[0,0.5],[1,0.5]];portConstraint=eastwest;strokeColor=inherit;fontSize=16;" parent="5tA6jEpRhgvisvDdZv_s-22" vertex="1">
          <mxGeometry y="30" width="210" height="30" as="geometry" />
        </mxCell>
        <mxCell id="5tA6jEpRhgvisvDdZv_s-24" value="&lt;font style=&quot;font-size: 15px;&quot;&gt;Primary Key&lt;/font&gt;" style="shape=partialRectangle;html=1;whiteSpace=wrap;connectable=0;fillColor=#f5f5f5;top=1;left=1;bottom=1;right=1;overflow=hidden;pointerEvents=1;strokeColor=#000000;fontSize=15;fontColor=#000000;perimeterSpacing=1;" parent="5tA6jEpRhgvisvDdZv_s-23" vertex="1">
          <mxGeometry width="105" height="30" as="geometry">
            <mxRectangle width="105" height="30" as="alternateBounds" />
          </mxGeometry>
        </mxCell>
        <mxCell id="5tA6jEpRhgvisvDdZv_s-25" value="id" style="shape=partialRectangle;html=1;whiteSpace=wrap;connectable=0;fillColor=#f5f5f5;top=1;left=1;bottom=1;right=1;align=left;spacingLeft=6;overflow=hidden;strokeColor=#000000;fontSize=15;fontColor=#000000;perimeterSpacing=1;" parent="5tA6jEpRhgvisvDdZv_s-23" vertex="1">
          <mxGeometry x="105" width="105" height="30" as="geometry">
            <mxRectangle width="105" height="30" as="alternateBounds" />
          </mxGeometry>
        </mxCell>
        <mxCell id="5tA6jEpRhgvisvDdZv_s-29" value="" style="shape=tableRow;horizontal=0;startSize=0;swimlaneHead=0;swimlaneBody=0;top=0;left=0;bottom=0;right=0;collapsible=0;dropTarget=0;fillColor=none;points=[[0,0.5],[1,0.5]];portConstraint=eastwest;strokeColor=inherit;fontSize=16;" parent="5tA6jEpRhgvisvDdZv_s-22" vertex="1">
          <mxGeometry y="60" width="210" height="30" as="geometry" />
        </mxCell>
        <mxCell id="5tA6jEpRhgvisvDdZv_s-30" value="Foreign Key" style="shape=partialRectangle;html=1;whiteSpace=wrap;connectable=0;fillColor=#f5f5f5;top=1;left=1;bottom=1;right=1;overflow=hidden;strokeColor=#000000;fontSize=15;fontColor=#000000;perimeterSpacing=1;" parent="5tA6jEpRhgvisvDdZv_s-29" vertex="1">
          <mxGeometry width="105" height="30" as="geometry">
            <mxRectangle width="105" height="30" as="alternateBounds" />
          </mxGeometry>
        </mxCell>
        <mxCell id="5tA6jEpRhgvisvDdZv_s-31" value="company" style="shape=partialRectangle;html=1;whiteSpace=wrap;connectable=0;fillColor=#f5f5f5;top=1;left=1;bottom=1;right=1;align=left;spacingLeft=6;overflow=hidden;strokeColor=#000000;fontSize=15;fontColor=#000000;perimeterSpacing=1;" parent="5tA6jEpRhgvisvDdZv_s-29" vertex="1">
          <mxGeometry x="105" width="105" height="30" as="geometry">
            <mxRectangle width="105" height="30" as="alternateBounds" />
          </mxGeometry>
        </mxCell>
        <mxCell id="h_Kg9dkI9j4lhHmOOgOo-6" value="" style="shape=tableRow;horizontal=0;startSize=0;swimlaneHead=0;swimlaneBody=0;top=0;left=0;bottom=0;right=0;collapsible=0;dropTarget=0;fillColor=none;points=[[0,0.5],[1,0.5]];portConstraint=eastwest;strokeColor=inherit;fontSize=16;" parent="5tA6jEpRhgvisvDdZv_s-22" vertex="1">
          <mxGeometry y="90" width="210" height="30" as="geometry" />
        </mxCell>
        <mxCell id="h_Kg9dkI9j4lhHmOOgOo-7" value="Foreign Key" style="shape=partialRectangle;html=1;whiteSpace=wrap;connectable=0;fillColor=#f5f5f5;top=1;left=1;bottom=1;right=1;overflow=hidden;strokeColor=#000000;fontSize=15;fontColor=#000000;perimeterSpacing=1;" parent="h_Kg9dkI9j4lhHmOOgOo-6" vertex="1">
          <mxGeometry width="105" height="30" as="geometry">
            <mxRectangle width="105" height="30" as="alternateBounds" />
          </mxGeometry>
        </mxCell>
        <mxCell id="h_Kg9dkI9j4lhHmOOgOo-8" value="schema" style="shape=partialRectangle;html=1;whiteSpace=wrap;connectable=0;fillColor=#f5f5f5;top=1;left=1;bottom=1;right=1;align=left;spacingLeft=6;overflow=hidden;strokeColor=#000000;fontSize=15;fontColor=#000000;perimeterSpacing=1;" parent="h_Kg9dkI9j4lhHmOOgOo-6" vertex="1">
          <mxGeometry x="105" width="105" height="30" as="geometry">
            <mxRectangle width="105" height="30" as="alternateBounds" />
          </mxGeometry>
        </mxCell>
        <mxCell id="5tA6jEpRhgvisvDdZv_s-60" value="" style="shape=tableRow;horizontal=0;startSize=0;swimlaneHead=0;swimlaneBody=0;top=0;left=0;bottom=0;right=0;collapsible=0;dropTarget=0;fillColor=none;points=[[0,0.5],[1,0.5]];portConstraint=eastwest;strokeColor=inherit;fontSize=16;" parent="5tA6jEpRhgvisvDdZv_s-22" vertex="1">
          <mxGeometry y="120" width="210" height="30" as="geometry" />
        </mxCell>
        <mxCell id="5tA6jEpRhgvisvDdZv_s-61" value="JSONField" style="shape=partialRectangle;html=1;whiteSpace=wrap;connectable=0;fillColor=#f5f5f5;top=1;left=1;bottom=1;right=1;overflow=hidden;strokeColor=#000000;fontSize=15;fontColor=#000000;perimeterSpacing=1;" parent="5tA6jEpRhgvisvDdZv_s-60" vertex="1">
          <mxGeometry width="105" height="30" as="geometry">
            <mxRectangle width="105" height="30" as="alternateBounds" />
          </mxGeometry>
        </mxCell>
        <mxCell id="5tA6jEpRhgvisvDdZv_s-62" value="data" style="shape=partialRectangle;html=1;whiteSpace=wrap;connectable=0;fillColor=#f5f5f5;top=1;left=1;bottom=1;right=1;align=left;spacingLeft=6;overflow=hidden;strokeColor=#000000;fontSize=15;fontColor=#000000;perimeterSpacing=1;" parent="5tA6jEpRhgvisvDdZv_s-60" vertex="1">
          <mxGeometry x="105" width="105" height="30" as="geometry">
            <mxRectangle width="105" height="30" as="alternateBounds" />
          </mxGeometry>
        </mxCell>
        <mxCell id="5tA6jEpRhgvisvDdZv_s-38" value="" style="shape=tableRow;horizontal=0;startSize=0;swimlaneHead=0;swimlaneBody=0;top=0;left=0;bottom=0;right=0;collapsible=0;dropTarget=0;fillColor=none;points=[[0,0.5],[1,0.5]];portConstraint=eastwest;strokeColor=inherit;fontSize=16;" parent="5tA6jEpRhgvisvDdZv_s-22" vertex="1">
          <mxGeometry y="150" width="210" height="30" as="geometry" />
        </mxCell>
        <mxCell id="5tA6jEpRhgvisvDdZv_s-39" value="Date" style="shape=partialRectangle;html=1;whiteSpace=wrap;connectable=0;fillColor=#f5f5f5;top=1;left=1;bottom=1;right=1;overflow=hidden;strokeColor=#000000;fontSize=15;fontColor=#000000;perimeterSpacing=1;" parent="5tA6jEpRhgvisvDdZv_s-38" vertex="1">
          <mxGeometry width="105" height="30" as="geometry">
            <mxRectangle width="105" height="30" as="alternateBounds" />
          </mxGeometry>
        </mxCell>
        <mxCell id="5tA6jEpRhgvisvDdZv_s-40" value="updated" style="shape=partialRectangle;html=1;whiteSpace=wrap;connectable=0;fillColor=#f5f5f5;top=1;left=1;bottom=1;right=1;align=left;spacingLeft=6;overflow=hidden;strokeColor=#000000;fontSize=15;fontColor=#000000;perimeterSpacing=1;" parent="5tA6jEpRhgvisvDdZv_s-38" vertex="1">
          <mxGeometry x="105" width="105" height="30" as="geometry">
            <mxRectangle width="105" height="30" as="alternateBounds" />
          </mxGeometry>
        </mxCell>
        <mxCell id="5tA6jEpRhgvisvDdZv_s-41" value="" style="shape=tableRow;horizontal=0;startSize=0;swimlaneHead=0;swimlaneBody=0;top=0;left=0;bottom=0;right=0;collapsible=0;dropTarget=0;fillColor=none;points=[[0,0.5],[1,0.5]];portConstraint=eastwest;strokeColor=inherit;fontSize=16;" parent="5tA6jEpRhgvisvDdZv_s-22" vertex="1">
          <mxGeometry y="180" width="210" height="30" as="geometry" />
        </mxCell>
        <mxCell id="5tA6jEpRhgvisvDdZv_s-42" value="Date" style="shape=partialRectangle;html=1;whiteSpace=wrap;connectable=0;fillColor=#f5f5f5;top=1;left=1;bottom=1;right=1;overflow=hidden;strokeColor=#000000;fontSize=15;fontColor=#000000;perimeterSpacing=1;" parent="5tA6jEpRhgvisvDdZv_s-41" vertex="1">
          <mxGeometry width="105" height="30" as="geometry">
            <mxRectangle width="105" height="30" as="alternateBounds" />
          </mxGeometry>
        </mxCell>
        <mxCell id="5tA6jEpRhgvisvDdZv_s-43" value="created" style="shape=partialRectangle;html=1;whiteSpace=wrap;connectable=0;fillColor=#f5f5f5;top=1;left=1;bottom=1;right=1;align=left;spacingLeft=6;overflow=hidden;strokeColor=#000000;fontSize=15;fontColor=#000000;perimeterSpacing=1;" parent="5tA6jEpRhgvisvDdZv_s-41" vertex="1">
          <mxGeometry x="105" width="105" height="30" as="geometry">
            <mxRectangle width="105" height="30" as="alternateBounds" />
          </mxGeometry>
        </mxCell>
        <mxCell id="5tA6jEpRhgvisvDdZv_s-69" style="edgeStyle=none;rounded=1;orthogonalLoop=1;jettySize=auto;html=1;fontSize=12;startSize=8;endSize=8;entryX=1.021;entryY=0.307;entryDx=0;entryDy=0;entryPerimeter=0;endArrow=ERone;endFill=0;startArrow=ERmany;startFill=0;strokeWidth=2;" parent="1" source="5tA6jEpRhgvisvDdZv_s-29" target="uZRpH8Z-nk-ToQXNzY9e-189" edge="1">
          <mxGeometry relative="1" as="geometry">
            <mxPoint x="840" y="850" as="targetPoint" />
            <Array as="points">
              <mxPoint x="840" y="975" />
              <mxPoint x="840" y="839" />
            </Array>
          </mxGeometry>
        </mxCell>
        <mxCell id="5tA6jEpRhgvisvDdZv_s-97" value="Supplier" style="shape=table;startSize=30;container=1;collapsible=0;childLayout=tableLayout;fixedRows=1;rowLines=1;fontStyle=1;strokeColor=#000000;fontSize=18;fillColor=#6a00ff;fontColor=#ffffff;" parent="1" vertex="1">
          <mxGeometry x="1280" y="380" width="210" height="210" as="geometry" />
        </mxCell>
        <mxCell id="5tA6jEpRhgvisvDdZv_s-98" value="" style="shape=tableRow;horizontal=0;startSize=0;swimlaneHead=0;swimlaneBody=0;top=0;left=0;bottom=0;right=0;collapsible=0;dropTarget=0;fillColor=none;points=[[0,0.5],[1,0.5]];portConstraint=eastwest;strokeColor=inherit;fontSize=16;" parent="5tA6jEpRhgvisvDdZv_s-97" vertex="1">
          <mxGeometry y="30" width="210" height="30" as="geometry" />
        </mxCell>
        <mxCell id="5tA6jEpRhgvisvDdZv_s-99" value="&lt;font style=&quot;font-size: 15px;&quot;&gt;Primary Key&lt;/font&gt;" style="shape=partialRectangle;html=1;whiteSpace=wrap;connectable=0;fillColor=#f5f5f5;top=1;left=1;bottom=1;right=1;overflow=hidden;pointerEvents=1;strokeColor=#000000;fontSize=15;fontColor=#000000;perimeterSpacing=1;" parent="5tA6jEpRhgvisvDdZv_s-98" vertex="1">
          <mxGeometry width="105" height="30" as="geometry">
            <mxRectangle width="105" height="30" as="alternateBounds" />
          </mxGeometry>
        </mxCell>
        <mxCell id="5tA6jEpRhgvisvDdZv_s-100" value="id" style="shape=partialRectangle;html=1;whiteSpace=wrap;connectable=0;fillColor=#f5f5f5;top=1;left=1;bottom=1;right=1;align=left;spacingLeft=6;overflow=hidden;strokeColor=#000000;fontSize=15;fontColor=#000000;perimeterSpacing=1;" parent="5tA6jEpRhgvisvDdZv_s-98" vertex="1">
          <mxGeometry x="105" width="105" height="30" as="geometry">
            <mxRectangle width="105" height="30" as="alternateBounds" />
          </mxGeometry>
        </mxCell>
        <mxCell id="5tA6jEpRhgvisvDdZv_s-101" value="" style="shape=tableRow;horizontal=0;startSize=0;swimlaneHead=0;swimlaneBody=0;top=0;left=0;bottom=0;right=0;collapsible=0;dropTarget=0;fillColor=none;points=[[0,0.5],[1,0.5]];portConstraint=eastwest;strokeColor=inherit;fontSize=16;" parent="5tA6jEpRhgvisvDdZv_s-97" vertex="1">
          <mxGeometry y="60" width="210" height="30" as="geometry" />
        </mxCell>
        <mxCell id="5tA6jEpRhgvisvDdZv_s-102" value="&lt;font style=&quot;font-size: 15px;&quot;&gt;Foreign Key&lt;/font&gt;" style="shape=partialRectangle;html=1;whiteSpace=wrap;connectable=0;fillColor=#f5f5f5;top=1;left=1;bottom=1;right=1;overflow=hidden;pointerEvents=1;strokeColor=#000000;fontSize=15;fontColor=#000000;perimeterSpacing=1;" parent="5tA6jEpRhgvisvDdZv_s-101" vertex="1">
          <mxGeometry width="105" height="30" as="geometry">
            <mxRectangle width="105" height="30" as="alternateBounds" />
          </mxGeometry>
        </mxCell>
        <mxCell id="5tA6jEpRhgvisvDdZv_s-103" value="company" style="shape=partialRectangle;html=1;whiteSpace=wrap;connectable=0;fillColor=#f5f5f5;top=1;left=1;bottom=1;right=1;align=left;spacingLeft=6;overflow=hidden;strokeColor=#000000;fontSize=15;fontColor=#000000;perimeterSpacing=1;" parent="5tA6jEpRhgvisvDdZv_s-101" vertex="1">
          <mxGeometry x="105" width="105" height="30" as="geometry">
            <mxRectangle width="105" height="30" as="alternateBounds" />
          </mxGeometry>
        </mxCell>
        <mxCell id="5tA6jEpRhgvisvDdZv_s-153" value="" style="shape=tableRow;horizontal=0;startSize=0;swimlaneHead=0;swimlaneBody=0;top=0;left=0;bottom=0;right=0;collapsible=0;dropTarget=0;fillColor=none;points=[[0,0.5],[1,0.5]];portConstraint=eastwest;strokeColor=inherit;fontSize=16;" parent="5tA6jEpRhgvisvDdZv_s-97" vertex="1">
          <mxGeometry y="90" width="210" height="30" as="geometry" />
        </mxCell>
        <mxCell id="5tA6jEpRhgvisvDdZv_s-154" value="&lt;font style=&quot;font-size: 15px;&quot;&gt;Foreign Key&lt;/font&gt;" style="shape=partialRectangle;html=1;whiteSpace=wrap;connectable=0;fillColor=#f5f5f5;top=1;left=1;bottom=1;right=1;overflow=hidden;pointerEvents=1;strokeColor=#000000;fontSize=15;fontColor=#000000;perimeterSpacing=1;" parent="5tA6jEpRhgvisvDdZv_s-153" vertex="1">
          <mxGeometry width="105" height="30" as="geometry">
            <mxRectangle width="105" height="30" as="alternateBounds" />
          </mxGeometry>
        </mxCell>
        <mxCell id="5tA6jEpRhgvisvDdZv_s-155" value="schema" style="shape=partialRectangle;html=1;whiteSpace=wrap;connectable=0;fillColor=#f5f5f5;top=1;left=1;bottom=1;right=1;align=left;spacingLeft=6;overflow=hidden;strokeColor=#000000;fontSize=15;fontColor=#000000;perimeterSpacing=1;" parent="5tA6jEpRhgvisvDdZv_s-153" vertex="1">
          <mxGeometry x="105" width="105" height="30" as="geometry">
            <mxRectangle width="105" height="30" as="alternateBounds" />
          </mxGeometry>
        </mxCell>
        <mxCell id="5tA6jEpRhgvisvDdZv_s-125" value="" style="shape=tableRow;horizontal=0;startSize=0;swimlaneHead=0;swimlaneBody=0;top=0;left=0;bottom=0;right=0;collapsible=0;dropTarget=0;fillColor=none;points=[[0,0.5],[1,0.5]];portConstraint=eastwest;strokeColor=inherit;fontSize=16;" parent="5tA6jEpRhgvisvDdZv_s-97" vertex="1">
          <mxGeometry y="120" width="210" height="30" as="geometry" />
        </mxCell>
        <mxCell id="5tA6jEpRhgvisvDdZv_s-126" value="JSONField" style="shape=partialRectangle;html=1;whiteSpace=wrap;connectable=0;fillColor=#f5f5f5;top=1;left=1;bottom=1;right=1;overflow=hidden;strokeColor=#000000;fontSize=15;fontColor=#000000;perimeterSpacing=1;" parent="5tA6jEpRhgvisvDdZv_s-125" vertex="1">
          <mxGeometry width="105" height="30" as="geometry">
            <mxRectangle width="105" height="30" as="alternateBounds" />
          </mxGeometry>
        </mxCell>
        <mxCell id="5tA6jEpRhgvisvDdZv_s-127" value="data" style="shape=partialRectangle;html=1;whiteSpace=wrap;connectable=0;fillColor=#f5f5f5;top=1;left=1;bottom=1;right=1;align=left;spacingLeft=6;overflow=hidden;strokeColor=#000000;fontSize=15;fontColor=#000000;perimeterSpacing=1;" parent="5tA6jEpRhgvisvDdZv_s-125" vertex="1">
          <mxGeometry x="105" width="105" height="30" as="geometry">
            <mxRectangle width="105" height="30" as="alternateBounds" />
          </mxGeometry>
        </mxCell>
        <mxCell id="5tA6jEpRhgvisvDdZv_s-128" value="" style="shape=tableRow;horizontal=0;startSize=0;swimlaneHead=0;swimlaneBody=0;top=0;left=0;bottom=0;right=0;collapsible=0;dropTarget=0;fillColor=none;points=[[0,0.5],[1,0.5]];portConstraint=eastwest;strokeColor=inherit;fontSize=16;" parent="5tA6jEpRhgvisvDdZv_s-97" vertex="1">
          <mxGeometry y="150" width="210" height="30" as="geometry" />
        </mxCell>
        <mxCell id="5tA6jEpRhgvisvDdZv_s-129" value="Date" style="shape=partialRectangle;html=1;whiteSpace=wrap;connectable=0;fillColor=#f5f5f5;top=1;left=1;bottom=1;right=1;overflow=hidden;strokeColor=#000000;fontSize=15;fontColor=#000000;perimeterSpacing=1;" parent="5tA6jEpRhgvisvDdZv_s-128" vertex="1">
          <mxGeometry width="105" height="30" as="geometry">
            <mxRectangle width="105" height="30" as="alternateBounds" />
          </mxGeometry>
        </mxCell>
        <mxCell id="5tA6jEpRhgvisvDdZv_s-130" value="updated" style="shape=partialRectangle;html=1;whiteSpace=wrap;connectable=0;fillColor=#f5f5f5;top=1;left=1;bottom=1;right=1;align=left;spacingLeft=6;overflow=hidden;strokeColor=#000000;fontSize=15;fontColor=#000000;perimeterSpacing=1;" parent="5tA6jEpRhgvisvDdZv_s-128" vertex="1">
          <mxGeometry x="105" width="105" height="30" as="geometry">
            <mxRectangle width="105" height="30" as="alternateBounds" />
          </mxGeometry>
        </mxCell>
        <mxCell id="5tA6jEpRhgvisvDdZv_s-131" value="" style="shape=tableRow;horizontal=0;startSize=0;swimlaneHead=0;swimlaneBody=0;top=0;left=0;bottom=0;right=0;collapsible=0;dropTarget=0;fillColor=none;points=[[0,0.5],[1,0.5]];portConstraint=eastwest;strokeColor=inherit;fontSize=16;" parent="5tA6jEpRhgvisvDdZv_s-97" vertex="1">
          <mxGeometry y="180" width="210" height="30" as="geometry" />
        </mxCell>
        <mxCell id="5tA6jEpRhgvisvDdZv_s-132" value="Date" style="shape=partialRectangle;html=1;whiteSpace=wrap;connectable=0;fillColor=#f5f5f5;top=1;left=1;bottom=1;right=1;overflow=hidden;strokeColor=#000000;fontSize=15;fontColor=#000000;perimeterSpacing=1;" parent="5tA6jEpRhgvisvDdZv_s-131" vertex="1">
          <mxGeometry width="105" height="30" as="geometry">
            <mxRectangle width="105" height="30" as="alternateBounds" />
          </mxGeometry>
        </mxCell>
        <mxCell id="5tA6jEpRhgvisvDdZv_s-133" value="created" style="shape=partialRectangle;html=1;whiteSpace=wrap;connectable=0;fillColor=#f5f5f5;top=1;left=1;bottom=1;right=1;align=left;spacingLeft=6;overflow=hidden;strokeColor=#000000;fontSize=15;fontColor=#000000;perimeterSpacing=1;" parent="5tA6jEpRhgvisvDdZv_s-131" vertex="1">
          <mxGeometry x="105" width="105" height="30" as="geometry">
            <mxRectangle width="105" height="30" as="alternateBounds" />
          </mxGeometry>
        </mxCell>
        <mxCell id="5tA6jEpRhgvisvDdZv_s-134" style="edgeStyle=none;rounded=1;orthogonalLoop=1;jettySize=auto;html=1;fontSize=12;startSize=8;endSize=8;endArrow=ERone;endFill=0;startArrow=ERmany;startFill=0;entryX=0.945;entryY=0.001;entryDx=0;entryDy=0;entryPerimeter=0;strokeWidth=2;exitX=0.009;exitY=0.66;exitDx=0;exitDy=0;exitPerimeter=0;" parent="1" source="5tA6jEpRhgvisvDdZv_s-101" edge="1">
          <mxGeometry relative="1" as="geometry">
            <mxPoint x="728.45" y="620.2399999999999" as="targetPoint" />
            <mxPoint x="1241" y="697.8225806451612" as="sourcePoint" />
            <Array as="points">
              <mxPoint x="1240" y="460" />
              <mxPoint x="1240" y="600" />
              <mxPoint x="730" y="600" />
            </Array>
          </mxGeometry>
        </mxCell>
        <mxCell id="5tA6jEpRhgvisvDdZv_s-152" style="edgeStyle=none;rounded=1;orthogonalLoop=1;jettySize=auto;html=1;fontSize=12;startSize=8;endSize=8;entryX=1;entryY=0.5;entryDx=0;entryDy=0;strokeWidth=2;endArrow=ERone;endFill=0;startArrow=ERmany;startFill=0;" parent="1" source="5tA6jEpRhgvisvDdZv_s-149" target="UeCWlgEyR7h1v4Lc0QeG-2" edge="1">
          <mxGeometry relative="1" as="geometry">
            <mxPoint x="1180" y="480" as="targetPoint" />
            <Array as="points">
              <mxPoint x="1170" y="740" />
              <mxPoint x="1170" y="415" />
            </Array>
          </mxGeometry>
        </mxCell>
        <mxCell id="5tA6jEpRhgvisvDdZv_s-157" style="edgeStyle=none;rounded=1;orthogonalLoop=1;jettySize=auto;html=1;fontSize=12;startSize=8;endSize=8;strokeWidth=2;entryX=1.015;entryY=0.124;entryDx=0;entryDy=0;entryPerimeter=0;startArrow=ERmany;startFill=0;endArrow=ERone;endFill=0;" parent="1" source="5tA6jEpRhgvisvDdZv_s-153" edge="1">
          <mxGeometry relative="1" as="geometry">
            <mxPoint x="1143.15" y="391.32000000000005" as="targetPoint" />
            <mxPoint x="1241" y="724" as="sourcePoint" />
            <Array as="points">
              <mxPoint x="1190" y="485" />
              <mxPoint x="1190" y="391" />
            </Array>
          </mxGeometry>
        </mxCell>
        <mxCell id="5tA6jEpRhgvisvDdZv_s-161" style="edgeStyle=none;rounded=1;orthogonalLoop=1;jettySize=auto;html=1;fontSize=12;startSize=8;endSize=8;endArrow=none;endFill=0;strokeWidth=2;entryX=1;entryY=0.25;entryDx=0;entryDy=0;" parent="1" source="5tA6jEpRhgvisvDdZv_s-158" target="dV5eNK1e6XOIaoA4nbyB-31" edge="1">
          <mxGeometry relative="1" as="geometry">
            <mxPoint x="740" y="502.5" as="targetPoint" />
            <Array as="points">
              <mxPoint x="800" y="505" />
              <mxPoint x="800" y="418" />
            </Array>
          </mxGeometry>
        </mxCell>
        <mxCell id="dV5eNK1e6XOIaoA4nbyB-31" value="Choices" style="shape=table;startSize=30;container=1;collapsible=0;childLayout=tableLayout;fixedRows=1;rowLines=1;fontStyle=1;strokeColor=#000000;fontSize=18;fillColor=#60a917;fontColor=#ffffff;" parent="1" vertex="1">
          <mxGeometry x="600" y="380" width="160" height="150" as="geometry" />
        </mxCell>
        <mxCell id="dV5eNK1e6XOIaoA4nbyB-32" value="" style="shape=tableRow;horizontal=0;startSize=0;swimlaneHead=0;swimlaneBody=0;top=0;left=0;bottom=0;right=0;collapsible=0;dropTarget=0;fillColor=none;points=[[0,0.5],[1,0.5]];portConstraint=eastwest;strokeColor=inherit;fontSize=16;" parent="dV5eNK1e6XOIaoA4nbyB-31" vertex="1">
          <mxGeometry y="30" width="160" height="30" as="geometry" />
        </mxCell>
        <mxCell id="dV5eNK1e6XOIaoA4nbyB-33" value="&lt;font style=&quot;font-size: 15px;&quot;&gt;c&lt;/font&gt;" style="shape=partialRectangle;html=1;whiteSpace=wrap;connectable=0;fillColor=#f5f5f5;top=1;left=1;bottom=1;right=1;overflow=hidden;pointerEvents=1;strokeColor=#000000;fontSize=15;fontColor=#000000;perimeterSpacing=1;" parent="dV5eNK1e6XOIaoA4nbyB-32" vertex="1">
          <mxGeometry width="46" height="30" as="geometry">
            <mxRectangle width="46" height="30" as="alternateBounds" />
          </mxGeometry>
        </mxCell>
        <mxCell id="dV5eNK1e6XOIaoA4nbyB-34" value="customer" style="shape=partialRectangle;html=1;whiteSpace=wrap;connectable=0;fillColor=#f5f5f5;top=1;left=1;bottom=1;right=1;align=left;spacingLeft=6;overflow=hidden;strokeColor=#000000;fontSize=15;fontColor=#000000;perimeterSpacing=1;" parent="dV5eNK1e6XOIaoA4nbyB-32" vertex="1">
          <mxGeometry x="46" width="114" height="30" as="geometry">
            <mxRectangle width="114" height="30" as="alternateBounds" />
          </mxGeometry>
        </mxCell>
        <mxCell id="dV5eNK1e6XOIaoA4nbyB-35" value="" style="shape=tableRow;horizontal=0;startSize=0;swimlaneHead=0;swimlaneBody=0;top=0;left=0;bottom=0;right=0;collapsible=0;dropTarget=0;fillColor=none;points=[[0,0.5],[1,0.5]];portConstraint=eastwest;strokeColor=inherit;fontSize=16;" parent="dV5eNK1e6XOIaoA4nbyB-31" vertex="1">
          <mxGeometry y="60" width="160" height="30" as="geometry" />
        </mxCell>
        <mxCell id="dV5eNK1e6XOIaoA4nbyB-36" value="&lt;font style=&quot;font-size: 15px;&quot;&gt;s&lt;/font&gt;" style="shape=partialRectangle;html=1;whiteSpace=wrap;connectable=0;fillColor=#f5f5f5;top=1;left=1;bottom=1;right=1;overflow=hidden;pointerEvents=1;strokeColor=#000000;fontSize=15;fontColor=#000000;perimeterSpacing=1;" parent="dV5eNK1e6XOIaoA4nbyB-35" vertex="1">
          <mxGeometry width="46" height="30" as="geometry">
            <mxRectangle width="46" height="30" as="alternateBounds" />
          </mxGeometry>
        </mxCell>
        <mxCell id="dV5eNK1e6XOIaoA4nbyB-37" value="supplier" style="shape=partialRectangle;html=1;whiteSpace=wrap;connectable=0;fillColor=#f5f5f5;top=1;left=1;bottom=1;right=1;align=left;spacingLeft=6;overflow=hidden;strokeColor=#000000;fontSize=15;fontColor=#000000;perimeterSpacing=1;" parent="dV5eNK1e6XOIaoA4nbyB-35" vertex="1">
          <mxGeometry x="46" width="114" height="30" as="geometry">
            <mxRectangle width="114" height="30" as="alternateBounds" />
          </mxGeometry>
        </mxCell>
        <mxCell id="h_Kg9dkI9j4lhHmOOgOo-2" value="" style="shape=tableRow;horizontal=0;startSize=0;swimlaneHead=0;swimlaneBody=0;top=0;left=0;bottom=0;right=0;collapsible=0;dropTarget=0;fillColor=none;points=[[0,0.5],[1,0.5]];portConstraint=eastwest;strokeColor=inherit;fontSize=16;" parent="dV5eNK1e6XOIaoA4nbyB-31" vertex="1">
          <mxGeometry y="90" width="160" height="30" as="geometry" />
        </mxCell>
        <mxCell id="h_Kg9dkI9j4lhHmOOgOo-3" value="&lt;font style=&quot;font-size: 15px;&quot;&gt;p&lt;/font&gt;" style="shape=partialRectangle;html=1;whiteSpace=wrap;connectable=0;fillColor=#f5f5f5;top=1;left=1;bottom=1;right=1;overflow=hidden;pointerEvents=1;strokeColor=#000000;fontSize=15;fontColor=#000000;perimeterSpacing=1;" parent="h_Kg9dkI9j4lhHmOOgOo-2" vertex="1">
          <mxGeometry width="46" height="30" as="geometry">
            <mxRectangle width="46" height="30" as="alternateBounds" />
          </mxGeometry>
        </mxCell>
        <mxCell id="h_Kg9dkI9j4lhHmOOgOo-4" value="product" style="shape=partialRectangle;html=1;whiteSpace=wrap;connectable=0;fillColor=#f5f5f5;top=1;left=1;bottom=1;right=1;align=left;spacingLeft=6;overflow=hidden;strokeColor=#000000;fontSize=15;fontColor=#000000;perimeterSpacing=1;" parent="h_Kg9dkI9j4lhHmOOgOo-2" vertex="1">
          <mxGeometry x="46" width="114" height="30" as="geometry">
            <mxRectangle width="114" height="30" as="alternateBounds" />
          </mxGeometry>
        </mxCell>
        <mxCell id="h_Kg9dkI9j4lhHmOOgOo-40" value="" style="shape=tableRow;horizontal=0;startSize=0;swimlaneHead=0;swimlaneBody=0;top=0;left=0;bottom=0;right=0;collapsible=0;dropTarget=0;fillColor=none;points=[[0,0.5],[1,0.5]];portConstraint=eastwest;strokeColor=inherit;fontSize=16;" parent="dV5eNK1e6XOIaoA4nbyB-31" vertex="1">
          <mxGeometry y="120" width="160" height="30" as="geometry" />
        </mxCell>
        <mxCell id="h_Kg9dkI9j4lhHmOOgOo-41" value="&lt;font style=&quot;font-size: 15px;&quot;&gt;e&lt;/font&gt;" style="shape=partialRectangle;html=1;whiteSpace=wrap;connectable=0;fillColor=#f5f5f5;top=1;left=1;bottom=1;right=1;overflow=hidden;pointerEvents=1;strokeColor=#000000;fontSize=15;fontColor=#000000;perimeterSpacing=1;" parent="h_Kg9dkI9j4lhHmOOgOo-40" vertex="1">
          <mxGeometry width="46" height="30" as="geometry">
            <mxRectangle width="46" height="30" as="alternateBounds" />
          </mxGeometry>
        </mxCell>
        <mxCell id="h_Kg9dkI9j4lhHmOOgOo-42" value="employee" style="shape=partialRectangle;html=1;whiteSpace=wrap;connectable=0;fillColor=#f5f5f5;top=1;left=1;bottom=1;right=1;align=left;spacingLeft=6;overflow=hidden;strokeColor=#000000;fontSize=15;fontColor=#000000;perimeterSpacing=1;" parent="h_Kg9dkI9j4lhHmOOgOo-40" vertex="1">
          <mxGeometry x="46" width="114" height="30" as="geometry">
            <mxRectangle width="114" height="30" as="alternateBounds" />
          </mxGeometry>
        </mxCell>
        <mxCell id="h_Kg9dkI9j4lhHmOOgOo-9" style="edgeStyle=none;rounded=1;orthogonalLoop=1;jettySize=auto;html=1;fontSize=12;startSize=8;endSize=8;strokeWidth=2;entryX=0.852;entryY=0.967;entryDx=0;entryDy=0;entryPerimeter=0;endArrow=ERone;endFill=0;startArrow=ERmany;startFill=0;" parent="1" source="h_Kg9dkI9j4lhHmOOgOo-6" target="UeCWlgEyR7h1v4Lc0QeG-35" edge="1">
          <mxGeometry relative="1" as="geometry">
            <mxPoint x="1040" y="1005" as="targetPoint" />
            <Array as="points">
              <mxPoint x="1109" y="1005" />
            </Array>
          </mxGeometry>
        </mxCell>
        <mxCell id="h_Kg9dkI9j4lhHmOOgOo-21" value="Employee" style="shape=table;startSize=30;container=1;collapsible=0;childLayout=tableLayout;fixedRows=1;rowLines=1;fontStyle=1;strokeColor=#000000;fontSize=18;fillColor=#6a00ff;fontColor=#ffffff;" parent="1" vertex="1">
          <mxGeometry x="1280" y="110" width="210" height="210" as="geometry" />
        </mxCell>
        <mxCell id="h_Kg9dkI9j4lhHmOOgOo-22" value="" style="shape=tableRow;horizontal=0;startSize=0;swimlaneHead=0;swimlaneBody=0;top=0;left=0;bottom=0;right=0;collapsible=0;dropTarget=0;fillColor=none;points=[[0,0.5],[1,0.5]];portConstraint=eastwest;strokeColor=inherit;fontSize=16;" parent="h_Kg9dkI9j4lhHmOOgOo-21" vertex="1">
          <mxGeometry y="30" width="210" height="30" as="geometry" />
        </mxCell>
        <mxCell id="h_Kg9dkI9j4lhHmOOgOo-23" value="&lt;font style=&quot;font-size: 15px;&quot;&gt;Primary Key&lt;/font&gt;" style="shape=partialRectangle;html=1;whiteSpace=wrap;connectable=0;fillColor=#f5f5f5;top=1;left=1;bottom=1;right=1;overflow=hidden;pointerEvents=1;strokeColor=#000000;fontSize=15;fontColor=#000000;perimeterSpacing=1;" parent="h_Kg9dkI9j4lhHmOOgOo-22" vertex="1">
          <mxGeometry width="105" height="30" as="geometry">
            <mxRectangle width="105" height="30" as="alternateBounds" />
          </mxGeometry>
        </mxCell>
        <mxCell id="h_Kg9dkI9j4lhHmOOgOo-24" value="id" style="shape=partialRectangle;html=1;whiteSpace=wrap;connectable=0;fillColor=#f5f5f5;top=1;left=1;bottom=1;right=1;align=left;spacingLeft=6;overflow=hidden;strokeColor=#000000;fontSize=15;fontColor=#000000;perimeterSpacing=1;" parent="h_Kg9dkI9j4lhHmOOgOo-22" vertex="1">
          <mxGeometry x="105" width="105" height="30" as="geometry">
            <mxRectangle width="105" height="30" as="alternateBounds" />
          </mxGeometry>
        </mxCell>
        <mxCell id="h_Kg9dkI9j4lhHmOOgOo-25" value="" style="shape=tableRow;horizontal=0;startSize=0;swimlaneHead=0;swimlaneBody=0;top=0;left=0;bottom=0;right=0;collapsible=0;dropTarget=0;fillColor=none;points=[[0,0.5],[1,0.5]];portConstraint=eastwest;strokeColor=inherit;fontSize=16;" parent="h_Kg9dkI9j4lhHmOOgOo-21" vertex="1">
          <mxGeometry y="60" width="210" height="30" as="geometry" />
        </mxCell>
        <mxCell id="h_Kg9dkI9j4lhHmOOgOo-26" value="&lt;font style=&quot;font-size: 15px;&quot;&gt;Foreign Key&lt;/font&gt;" style="shape=partialRectangle;html=1;whiteSpace=wrap;connectable=0;fillColor=#f5f5f5;top=1;left=1;bottom=1;right=1;overflow=hidden;pointerEvents=1;strokeColor=#000000;fontSize=15;fontColor=#000000;perimeterSpacing=1;" parent="h_Kg9dkI9j4lhHmOOgOo-25" vertex="1">
          <mxGeometry width="105" height="30" as="geometry">
            <mxRectangle width="105" height="30" as="alternateBounds" />
          </mxGeometry>
        </mxCell>
        <mxCell id="h_Kg9dkI9j4lhHmOOgOo-27" value="company" style="shape=partialRectangle;html=1;whiteSpace=wrap;connectable=0;fillColor=#f5f5f5;top=1;left=1;bottom=1;right=1;align=left;spacingLeft=6;overflow=hidden;strokeColor=#000000;fontSize=15;fontColor=#000000;perimeterSpacing=1;" parent="h_Kg9dkI9j4lhHmOOgOo-25" vertex="1">
          <mxGeometry x="105" width="105" height="30" as="geometry">
            <mxRectangle width="105" height="30" as="alternateBounds" />
          </mxGeometry>
        </mxCell>
        <mxCell id="h_Kg9dkI9j4lhHmOOgOo-28" value="" style="shape=tableRow;horizontal=0;startSize=0;swimlaneHead=0;swimlaneBody=0;top=0;left=0;bottom=0;right=0;collapsible=0;dropTarget=0;fillColor=none;points=[[0,0.5],[1,0.5]];portConstraint=eastwest;strokeColor=inherit;fontSize=16;" parent="h_Kg9dkI9j4lhHmOOgOo-21" vertex="1">
          <mxGeometry y="90" width="210" height="30" as="geometry" />
        </mxCell>
        <mxCell id="h_Kg9dkI9j4lhHmOOgOo-29" value="&lt;font style=&quot;font-size: 15px;&quot;&gt;Foreign Key&lt;/font&gt;" style="shape=partialRectangle;html=1;whiteSpace=wrap;connectable=0;fillColor=#f5f5f5;top=1;left=1;bottom=1;right=1;overflow=hidden;pointerEvents=1;strokeColor=#000000;fontSize=15;fontColor=#000000;perimeterSpacing=1;" parent="h_Kg9dkI9j4lhHmOOgOo-28" vertex="1">
          <mxGeometry width="105" height="30" as="geometry">
            <mxRectangle width="105" height="30" as="alternateBounds" />
          </mxGeometry>
        </mxCell>
        <mxCell id="h_Kg9dkI9j4lhHmOOgOo-30" value="schema" style="shape=partialRectangle;html=1;whiteSpace=wrap;connectable=0;fillColor=#f5f5f5;top=1;left=1;bottom=1;right=1;align=left;spacingLeft=6;overflow=hidden;strokeColor=#000000;fontSize=15;fontColor=#000000;perimeterSpacing=1;" parent="h_Kg9dkI9j4lhHmOOgOo-28" vertex="1">
          <mxGeometry x="105" width="105" height="30" as="geometry">
            <mxRectangle width="105" height="30" as="alternateBounds" />
          </mxGeometry>
        </mxCell>
        <mxCell id="h_Kg9dkI9j4lhHmOOgOo-31" value="" style="shape=tableRow;horizontal=0;startSize=0;swimlaneHead=0;swimlaneBody=0;top=0;left=0;bottom=0;right=0;collapsible=0;dropTarget=0;fillColor=none;points=[[0,0.5],[1,0.5]];portConstraint=eastwest;strokeColor=inherit;fontSize=16;" parent="h_Kg9dkI9j4lhHmOOgOo-21" vertex="1">
          <mxGeometry y="120" width="210" height="30" as="geometry" />
        </mxCell>
        <mxCell id="h_Kg9dkI9j4lhHmOOgOo-32" value="JSONField" style="shape=partialRectangle;html=1;whiteSpace=wrap;connectable=0;fillColor=#f5f5f5;top=1;left=1;bottom=1;right=1;overflow=hidden;strokeColor=#000000;fontSize=15;fontColor=#000000;perimeterSpacing=1;" parent="h_Kg9dkI9j4lhHmOOgOo-31" vertex="1">
          <mxGeometry width="105" height="30" as="geometry">
            <mxRectangle width="105" height="30" as="alternateBounds" />
          </mxGeometry>
        </mxCell>
        <mxCell id="h_Kg9dkI9j4lhHmOOgOo-33" value="data" style="shape=partialRectangle;html=1;whiteSpace=wrap;connectable=0;fillColor=#f5f5f5;top=1;left=1;bottom=1;right=1;align=left;spacingLeft=6;overflow=hidden;strokeColor=#000000;fontSize=15;fontColor=#000000;perimeterSpacing=1;" parent="h_Kg9dkI9j4lhHmOOgOo-31" vertex="1">
          <mxGeometry x="105" width="105" height="30" as="geometry">
            <mxRectangle width="105" height="30" as="alternateBounds" />
          </mxGeometry>
        </mxCell>
        <mxCell id="h_Kg9dkI9j4lhHmOOgOo-34" value="" style="shape=tableRow;horizontal=0;startSize=0;swimlaneHead=0;swimlaneBody=0;top=0;left=0;bottom=0;right=0;collapsible=0;dropTarget=0;fillColor=none;points=[[0,0.5],[1,0.5]];portConstraint=eastwest;strokeColor=inherit;fontSize=16;" parent="h_Kg9dkI9j4lhHmOOgOo-21" vertex="1">
          <mxGeometry y="150" width="210" height="30" as="geometry" />
        </mxCell>
        <mxCell id="h_Kg9dkI9j4lhHmOOgOo-35" value="Date" style="shape=partialRectangle;html=1;whiteSpace=wrap;connectable=0;fillColor=#f5f5f5;top=1;left=1;bottom=1;right=1;overflow=hidden;strokeColor=#000000;fontSize=15;fontColor=#000000;perimeterSpacing=1;" parent="h_Kg9dkI9j4lhHmOOgOo-34" vertex="1">
          <mxGeometry width="105" height="30" as="geometry">
            <mxRectangle width="105" height="30" as="alternateBounds" />
          </mxGeometry>
        </mxCell>
        <mxCell id="h_Kg9dkI9j4lhHmOOgOo-36" value="updated" style="shape=partialRectangle;html=1;whiteSpace=wrap;connectable=0;fillColor=#f5f5f5;top=1;left=1;bottom=1;right=1;align=left;spacingLeft=6;overflow=hidden;strokeColor=#000000;fontSize=15;fontColor=#000000;perimeterSpacing=1;" parent="h_Kg9dkI9j4lhHmOOgOo-34" vertex="1">
          <mxGeometry x="105" width="105" height="30" as="geometry">
            <mxRectangle width="105" height="30" as="alternateBounds" />
          </mxGeometry>
        </mxCell>
        <mxCell id="h_Kg9dkI9j4lhHmOOgOo-37" value="" style="shape=tableRow;horizontal=0;startSize=0;swimlaneHead=0;swimlaneBody=0;top=0;left=0;bottom=0;right=0;collapsible=0;dropTarget=0;fillColor=none;points=[[0,0.5],[1,0.5]];portConstraint=eastwest;strokeColor=inherit;fontSize=16;" parent="h_Kg9dkI9j4lhHmOOgOo-21" vertex="1">
          <mxGeometry y="180" width="210" height="30" as="geometry" />
        </mxCell>
        <mxCell id="h_Kg9dkI9j4lhHmOOgOo-38" value="Date" style="shape=partialRectangle;html=1;whiteSpace=wrap;connectable=0;fillColor=#f5f5f5;top=1;left=1;bottom=1;right=1;overflow=hidden;strokeColor=#000000;fontSize=15;fontColor=#000000;perimeterSpacing=1;" parent="h_Kg9dkI9j4lhHmOOgOo-37" vertex="1">
          <mxGeometry width="105" height="30" as="geometry">
            <mxRectangle width="105" height="30" as="alternateBounds" />
          </mxGeometry>
        </mxCell>
        <mxCell id="h_Kg9dkI9j4lhHmOOgOo-39" value="created" style="shape=partialRectangle;html=1;whiteSpace=wrap;connectable=0;fillColor=#f5f5f5;top=1;left=1;bottom=1;right=1;align=left;spacingLeft=6;overflow=hidden;strokeColor=#000000;fontSize=15;fontColor=#000000;perimeterSpacing=1;" parent="h_Kg9dkI9j4lhHmOOgOo-37" vertex="1">
          <mxGeometry x="105" width="105" height="30" as="geometry">
            <mxRectangle width="105" height="30" as="alternateBounds" />
          </mxGeometry>
        </mxCell>
        <mxCell id="h_Kg9dkI9j4lhHmOOgOo-43" style="edgeStyle=none;rounded=1;orthogonalLoop=1;jettySize=auto;html=1;fontSize=12;startSize=8;endSize=8;strokeWidth=2;entryX=1;entryY=0.5;entryDx=0;entryDy=0;endArrow=ERone;endFill=0;startArrow=ERmany;startFill=0;" parent="1" source="h_Kg9dkI9j4lhHmOOgOo-25" target="uZRpH8Z-nk-ToQXNzY9e-220" edge="1">
          <mxGeometry relative="1" as="geometry">
            <mxPoint x="1150" y="780" as="targetPoint" />
            <Array as="points">
              <mxPoint x="840" y="185" />
              <mxPoint x="840" y="695" />
            </Array>
          </mxGeometry>
        </mxCell>
        <mxCell id="h_Kg9dkI9j4lhHmOOgOo-45" style="edgeStyle=none;rounded=1;orthogonalLoop=1;jettySize=auto;html=1;fontSize=12;startSize=8;endSize=8;entryX=0.804;entryY=-0.017;entryDx=0;entryDy=0;entryPerimeter=0;strokeWidth=2;endArrow=ERone;endFill=0;startArrow=ERmany;startFill=0;" parent="1" source="h_Kg9dkI9j4lhHmOOgOo-28" target="UeCWlgEyR7h1v4Lc0QeG-1" edge="1">
          <mxGeometry relative="1" as="geometry">
            <mxPoint x="1120.0000000000002" y="215" as="targetPoint" />
            <Array as="points">
              <mxPoint x="1100" y="215" />
            </Array>
          </mxGeometry>
        </mxCell>
      </root>
    </mxGraphModel>
  </diagram>
</mxfile>
